<svg width="89" height="16" viewBox="0 0 89 16" fill="none" xmlns="http://www.w3.org/2000/svg">
<path d="M7.85294 0.564304L10.2159 5.34605L10.2741 5.46384L10.4041 5.4827L15.1714 6.1742L11.7612 9.52854L11.6727 9.61554L11.6885 9.73859L12.3964 15.2547L7.97162 12.8682L7.85294 12.8042L7.73427 12.8682L3.28349 15.2687L3.70458 9.72571L3.71287 9.61647L3.63819 9.53633L0.508427 6.17798L5.30173 5.4827L5.43177 5.46384L5.48997 5.34605L7.85294 0.564304Z" fill="#FFC001" stroke="#D39300" stroke-width="0.5"/>
<path d="M26.1765 0.564304L28.5395 5.34605L28.5977 5.46384L28.7277 5.4827L33.4949 6.1742L30.0847 9.52854L29.9963 9.61554L30.0121 9.73859L30.7199 15.2547L26.2952 12.8682L26.1765 12.8042L26.0578 12.8682L21.607 15.2687L22.0281 9.72571L22.0364 9.61647L21.9617 9.53633L18.832 6.17798L23.6253 5.4827L23.7553 5.46384L23.8135 5.34605L26.1765 0.564304Z" fill="#FFC001" stroke="#D39300" stroke-width="0.5"/>
<path d="M44.5 0.564304L46.8629 5.34605L46.9212 5.46384L47.0512 5.4827L51.8184 6.1742L48.4082 9.52854L48.3197 9.61554L48.3355 9.73859L49.0434 15.2547L44.6187 12.8682L44.5 12.8042L44.3813 12.8682L39.9305 15.2687L40.3516 9.72571L40.3599 9.61647L40.2852 9.53633L37.1555 6.17798L41.9488 5.4827L42.0788 5.46384L42.137 5.34605L44.5 0.564304Z" fill="#FFC001" stroke="#D39300" stroke-width="0.5"/>
<path d="M62.8235 0.564304L65.1865 5.34605L65.2447 5.46384L65.3747 5.4827L70.142 6.1742L66.7317 9.52854L66.6433 9.61554L66.6591 9.73859L67.367 15.2547L62.9422 12.8682L62.8235 12.8042L62.7048 12.8682L58.2541 15.2687L58.6752 9.72571L58.6835 9.61647L58.6088 9.53633L55.479 6.17798L60.2723 5.4827L60.4023 5.46384L60.4606 5.34605L62.8235 0.564304Z" fill="#FFC001" stroke="#D39300" stroke-width="0.5"/>
<path d="M81.1471 0.564304L83.51 5.34605L83.5682 5.46384L83.6983 5.48271L88.4655 6.1742L85.0553 9.52854L84.9668 9.61554L84.9826 9.73859L85.6905 15.2547L81.2657 12.8682L81.1471 12.8042L81.0284 12.8682L76.5776 15.2687L76.9987 9.72571L77.007 9.61647L76.9323 9.53633L73.8026 6.17798L78.5959 5.48271L78.7259 5.46384L78.7841 5.34605L81.1471 0.564304Z" fill="#FFC001" stroke="#D39300" stroke-width="0.5"/>
</svg>
