<svg width="20" height="20" viewBox="0 0 20 20" fill="none" xmlns="http://www.w3.org/2000/svg">
<path d="M17.5 8.33349C17.5 14.1668 10 19.1668 10 19.1668C10 19.1668 2.5 14.1668 2.5 8.33349C2.5 6.34437 3.29018 4.43672 4.6967 3.03019C6.10322 1.62367 8.01088 0.833496 10 0.833496C11.9891 0.833496 13.8968 1.62367 15.3033 3.03019C16.7098 4.43672 17.5 6.34437 17.5 8.33349Z" stroke="#C4C4C4" stroke-linecap="round" stroke-linejoin="round"/>
<path d="M10 10.833C11.3807 10.833 12.5 9.71373 12.5 8.33301C12.5 6.9523 11.3807 5.83301 10 5.83301C8.61929 5.83301 7.5 6.9523 7.5 8.33301C7.5 9.71373 8.61929 10.833 10 10.833Z" stroke="#C4C4C4" stroke-linecap="round" stroke-linejoin="round"/>
</svg>
