<svg width="20" height="20" viewBox="0 0 20 20" fill="none" xmlns="http://www.w3.org/2000/svg">
<path d="M17.3636 3H2.63636C1.73262 3 1 3.72754 1 4.625V14.375C1 15.2725 1.73262 16 2.63636 16H17.3636C18.2674 16 19 15.2725 19 14.375V4.625C19 3.72754 18.2674 3 17.3636 3Z" stroke="#C4C4C4" stroke-linecap="round" stroke-linejoin="round"/>
<path fill-rule="evenodd" clip-rule="evenodd" d="M4.35355 8H7.14645L6.5 8.64645L4 11.1464L4.35355 12H8.35355V11H5.56066L7.20711 9.35355L8.70711 7.85355L8.35355 7H4.35355V8ZM9.85355 7V12H10.8536V7H9.85355ZM12.3536 11V12H13.3536V11H14.3536C15.4581 11 16.3536 10.1046 16.3536 9C16.3536 7.89542 15.4581 7 14.3536 7H13.3536H12.8536H12.3536V7.5V10.5V11ZM13.3536 8V10H14.3536C14.9058 10 15.3536 9.55228 15.3536 9C15.3536 8.44772 14.9058 8 14.3536 8H13.3536Z" fill="#C4C4C4"/>
</svg>
