<svg width="0" height="0" class="hidden">
  <symbol fill="none" xmlns="http://www.w3.org/2000/svg" viewBox="0 0 142 30" id="header_logo">
    <path d="M21.5223 9.20168C20.8601 7.96919 19.9496 7.03081 18.7907 6.38656C17.6318 5.7423 16.2797 5.42017 14.7345 5.42017C13.0238 5.42017 11.5062 5.81233 10.1817 6.59664C8.85727 7.38095 7.82254 8.5014 7.07754 9.95798C6.33253 11.4146 5.96003 13.0952 5.96003 15C5.96003 16.9608 6.33253 18.6695 7.07754 20.1261C7.85014 21.5826 8.91246 22.7031 10.2645 23.4874C11.6165 24.2717 13.1893 24.6639 14.9829 24.6639C17.1903 24.6639 18.9976 24.0756 20.4048 22.8992C21.8121 21.6947 22.7364 20.028 23.1779 17.8992H13.2445V13.4034H28.8896V18.5294C28.5033 20.5742 27.6755 22.465 26.4063 24.2017C25.137 25.9384 23.4952 27.3389 21.4809 28.4034C19.4943 29.4398 17.2593 29.958 14.7759 29.958C11.989 29.958 9.46431 29.3277 7.20171 28.0672C4.96669 26.7787 3.20076 25 1.9039 22.7311C0.634633 20.4622 0 17.8852 0 15C0 12.1148 0.634633 9.53782 1.9039 7.26891C3.20076 4.97199 4.96669 3.19328 7.20171 1.93277C9.46431 0.644258 11.9753 0 14.7345 0C17.9905 0 20.8187 0.812325 23.2193 2.43697C25.6199 4.03361 27.2754 6.28852 28.186 9.20168H21.5223Z" fill="white"></path>
    <path d="M41.9925 30C39.7575 30 37.7432 29.5098 35.9497 28.5294C34.1562 27.549 32.7489 26.1905 31.728 24.4538C30.7346 22.6891 30.238 20.7003 30.238 18.4874C30.238 16.2745 30.7346 14.2997 31.728 12.563C32.7489 10.8263 34.1562 9.46779 35.9497 8.4874C37.7432 7.507 39.7575 7.01681 41.9925 7.01681C44.2551 7.01681 46.2832 7.507 48.0767 8.4874C49.8702 9.46779 51.2637 10.8263 52.257 12.563C53.2779 14.2997 53.7884 16.2745 53.7884 18.4874C53.7884 20.7003 53.2779 22.6891 52.257 24.4538C51.2637 26.1905 49.8702 27.549 48.0767 28.5294C46.2832 29.5098 44.2551 30 41.9925 30ZM41.9925 25.5042C43.8964 25.5042 45.4692 24.8599 46.7108 23.5714C47.9525 22.2829 48.5734 20.5882 48.5734 18.4874C48.5734 16.3866 47.9525 14.6919 46.7108 13.4034C45.4692 12.1148 43.8964 11.4706 41.9925 11.4706C40.0886 11.4706 38.5158 12.1148 37.2741 13.4034C36.06 14.6919 35.453 16.3866 35.453 18.4874C35.453 20.5882 36.06 22.2829 37.2741 23.5714C38.5158 24.8599 40.0886 25.5042 41.9925 25.5042Z" fill="white"></path>
    <path d="M71.7688 29.7059L61.256 16.6387V29.7059H55.4615V0.378151H61.256V13.5294L71.7688 0.378151H78.7636L66.8435 14.916L79.0947 29.7059H71.7688Z" fill="white"></path>
    <path d="M102.566 18.6134C102.566 18.9776 102.538 19.4958 102.483 20.1681H85.1411C85.4446 21.8207 86.231 23.1373 87.5002 24.1176C88.7971 25.07 90.3975 25.5462 92.3014 25.5462C94.7295 25.5462 96.73 24.7339 98.3028 23.1092L101.076 26.3445C100.083 27.549 98.8271 28.4594 97.3095 29.0756C95.7919 29.6919 94.0811 30 92.1772 30C89.749 30 87.6106 29.5098 85.7619 28.5294C83.9132 27.549 82.4784 26.1905 81.4574 24.4538C80.4641 22.6891 79.9674 20.7003 79.9674 18.4874C79.9674 16.3025 80.4503 14.3417 81.416 12.605C82.4094 10.8403 83.7752 9.46779 85.5136 8.4874C87.2519 7.507 89.211 7.01681 91.3908 7.01681C93.5431 7.01681 95.4607 7.507 97.1439 8.4874C98.8547 9.43978 100.179 10.7983 101.117 12.563C102.083 14.2997 102.566 16.3165 102.566 18.6134ZM91.3908 11.2185C89.7353 11.2185 88.328 11.7227 87.1691 12.7311C86.0378 13.7115 85.348 15.028 85.0997 16.6807H97.6406C97.4198 15.056 96.7438 13.7395 95.6125 12.7311C94.4812 11.7227 93.074 11.2185 91.3908 11.2185Z" fill="white"></path>
    <path d="M112.088 11.2605V22.521C112.088 23.3053 112.268 23.8796 112.626 24.2437C113.013 24.5798 113.647 24.7479 114.53 24.7479H117.221V29.7059H113.578C108.694 29.7059 106.252 27.2969 106.252 22.479V11.2605H103.521V6.42857H106.252V1.34457L112.088 0.672268V6.42857H117.221V11.2605H112.088Z" fill="white"></path>
    <path d="M130.204 30C127.969 30 125.955 29.5098 124.161 28.5294C122.368 27.549 120.961 26.1905 119.94 24.4538C118.946 22.6891 118.45 20.7003 118.45 18.4874C118.45 16.2745 118.946 14.2997 119.94 12.563C120.961 10.8263 122.368 9.46779 124.161 8.4874C125.955 7.507 127.969 7.01681 130.204 7.01681C132.467 7.01681 134.495 7.507 136.288 8.4874C138.082 9.46779 139.475 10.8263 140.469 12.563C141.49 14.2997 142 16.2745 142 18.4874C142 20.7003 141.49 22.6891 140.469 24.4538C139.475 26.1905 138.082 27.549 136.288 28.5294C134.495 29.5098 132.467 30 130.204 30ZM130.204 25.5042C132.108 25.5042 133.681 24.8599 134.922 23.5714C136.164 22.2829 136.785 20.5882 136.785 18.4874C136.785 16.3866 136.164 14.6919 134.922 13.4034C133.681 12.1148 132.108 11.4706 130.204 11.4706C128.3 11.4706 126.727 12.1148 125.486 13.4034C124.272 14.6919 123.665 16.3866 123.665 18.4874C123.665 20.5882 124.272 22.2829 125.486 23.5714C126.727 24.8599 128.3 25.5042 130.204 25.5042Z" fill="white"></path>
  </symbol>

  <symbol fill="none" xmlns="http://www.w3.org/2000/svg" viewBox="0 0 20 16" id="header_but_img">
    <path d="M7.22183 7.27046C7.64324 7.66554 7.64324 8.33446 7.22183 8.72954L1.68394 13.9213C1.04528 14.5201 9.36692e-08 14.0672 1.50901e-07 13.1918L8.29728e-07 2.80823C8.8696e-07 1.93279 1.04528 1.47995 1.68394 2.0787L7.22183 7.27046Z" fill="white"></path>
    <path d="M19.2218 7.27046C19.6432 7.66554 19.6432 8.33446 19.2218 8.72954L13.6839 13.9213C13.0453 14.5201 12 14.0672 12 13.1918L12 2.80823C12 1.93279 13.0453 1.47995 13.6839 2.0787L19.2218 7.27046Z" fill="white"></path>
  </symbol>

  <symbol fill="none" xmlns="http://www.w3.org/2000/svg" viewBox="0 0 89 89" id="header_top_img">
    <path d="M0 0H89V89L0 0Z" fill="url(#paint0_linear_748_384)"></path>
    <path d="M27.6875 7.40513V9.34431C27.6154 9.43964 27.5026 9.54427 27.3492 9.6582C27.1981 9.76981 26.9969 9.8663 26.7458 9.94768C26.4947 10.0291 26.182 10.0698 25.8076 10.0698C25.4891 10.0698 25.1973 10.0163 24.9322 9.90932C24.6671 9.80004 24.4381 9.64076 24.2451 9.4315C24.0545 9.22224 23.9068 8.96763 23.8022 8.66769C23.6975 8.36542 23.6452 8.0213 23.6452 7.63532V7.28306C23.6452 6.89941 23.6929 6.55762 23.7882 6.25767C23.8859 5.9554 24.0254 5.69964 24.2068 5.49037C24.3881 5.28111 24.6067 5.123 24.8624 5.01604C25.1205 4.90676 25.4123 4.85212 25.7379 4.85212C26.1541 4.85212 26.4982 4.92188 26.7702 5.06138C27.0446 5.19857 27.2562 5.38923 27.405 5.63337C27.5538 5.87751 27.648 6.15653 27.6875 6.47042H26.8295C26.8016 6.29371 26.747 6.1356 26.6656 5.99609C26.5865 5.85658 26.4726 5.7473 26.3238 5.66825C26.1773 5.58687 25.9867 5.54618 25.7518 5.54618C25.5495 5.54618 25.3717 5.58454 25.2182 5.66127C25.0647 5.738 24.9368 5.85077 24.8345 5.99958C24.7346 6.14839 24.659 6.32975 24.6078 6.54367C24.5567 6.75758 24.5311 7.00172 24.5311 7.27609V7.63532C24.5311 7.91434 24.5602 8.16197 24.6183 8.37821C24.6788 8.59445 24.7648 8.77697 24.8764 8.92578C24.9903 9.07459 25.1287 9.18736 25.2914 9.26409C25.4542 9.3385 25.6379 9.3757 25.8425 9.3757C26.0425 9.3757 26.2064 9.35942 26.3343 9.32687C26.4621 9.29199 26.5633 9.2513 26.6377 9.2048C26.7144 9.15597 26.7737 9.10947 26.8156 9.06529V8.05734H25.7588V7.40513H27.6875ZM32.7063 7.32143V7.60045C32.7063 7.9841 32.6563 8.32822 32.5564 8.63281C32.4564 8.93741 32.3134 9.19666 32.1274 9.41057C31.9437 9.62449 31.7228 9.78841 31.4647 9.90234C31.2066 10.014 30.9206 10.0698 30.6067 10.0698C30.2952 10.0698 30.0103 10.014 29.7522 9.90234C29.4965 9.78841 29.2744 9.62449 29.0861 9.41057C28.8977 9.19666 28.7513 8.93741 28.6466 8.63281C28.5443 8.32822 28.4932 7.9841 28.4932 7.60045V7.32143C28.4932 6.93778 28.5443 6.59482 28.6466 6.29255C28.7489 5.98796 28.8931 5.7287 29.0791 5.51479C29.2674 5.29855 29.4895 5.13463 29.7453 5.02302C30.0033 4.90909 30.2882 4.85212 30.5997 4.85212C30.9136 4.85212 31.1996 4.90909 31.4577 5.02302C31.7158 5.13463 31.9379 5.29855 32.1239 5.51479C32.3099 5.7287 32.4529 5.98796 32.5529 6.29255C32.6552 6.59482 32.7063 6.93778 32.7063 7.32143ZM31.8309 7.60045V7.31445C31.8309 7.03078 31.803 6.78083 31.7472 6.56459C31.6937 6.34603 31.6135 6.1635 31.5066 6.01702C31.4019 5.86821 31.2729 5.7566 31.1194 5.6822C30.966 5.60547 30.7927 5.5671 30.5997 5.5671C30.4068 5.5671 30.2347 5.60547 30.0836 5.6822C29.9324 5.7566 29.8034 5.86821 29.6964 6.01702C29.5918 6.1635 29.5116 6.34603 29.4558 6.56459C29.4 6.78083 29.3721 7.03078 29.3721 7.31445V7.60045C29.3721 7.88411 29.4 8.13523 29.4558 8.35379C29.5116 8.57236 29.593 8.75721 29.6999 8.90834C29.8092 9.05715 29.9394 9.16992 30.0905 9.24665C30.2417 9.32106 30.4137 9.35826 30.6067 9.35826C30.802 9.35826 30.9753 9.32106 31.1264 9.24665C31.2775 9.16992 31.4054 9.05715 31.51 8.90834C31.6147 8.75721 31.6937 8.57236 31.7472 8.35379C31.803 8.13523 31.8309 7.88411 31.8309 7.60045ZM35.0571 10H33.9724L33.9794 9.30594H35.0571C35.371 9.30594 35.6337 9.23735 35.8453 9.10017C36.0592 8.96298 36.2196 8.76651 36.3266 8.51074C36.4359 8.25498 36.4905 7.95038 36.4905 7.59696V7.32143C36.4905 7.04706 36.4591 6.80408 36.3963 6.59249C36.3359 6.38091 36.2452 6.20303 36.1243 6.05887C36.0057 5.91471 35.8592 5.80543 35.6848 5.73103C35.5128 5.65662 35.314 5.61942 35.0884 5.61942H33.9514V4.92188H35.0884C35.4256 4.92188 35.7337 4.97884 36.0127 5.09277C36.2917 5.20438 36.5324 5.36598 36.7347 5.57757C36.9393 5.78916 37.0962 6.0426 37.2055 6.33789C37.3148 6.63318 37.3694 6.96336 37.3694 7.3284V7.59696C37.3694 7.96201 37.3148 8.29218 37.2055 8.58747C37.0962 8.88277 36.9393 9.13621 36.7347 9.3478C36.53 9.55706 36.2859 9.71866 36.0022 9.83259C35.7209 9.9442 35.4058 10 35.0571 10ZM34.4572 4.92188V10H33.5818V4.92188H34.4572ZM40.1491 5.59849L38.632 10H37.7147L39.626 4.92188H40.2119L40.1491 5.59849ZM41.4187 10L39.898 5.59849L39.8318 4.92188H40.4212L42.3394 10H41.4187ZM41.3454 8.11663V8.81069H38.5831V8.11663H41.3454ZM44.3832 10H43.2985L43.3055 9.30594H44.3832C44.6971 9.30594 44.9599 9.23735 45.1715 9.10017C45.3854 8.96298 45.5458 8.76651 45.6528 8.51074C45.762 8.25498 45.8167 7.95038 45.8167 7.59696V7.32143C45.8167 7.04706 45.7853 6.80408 45.7225 6.59249C45.6621 6.38091 45.5714 6.20303 45.4505 6.05887C45.3319 5.91471 45.1854 5.80543 45.011 5.73103C44.839 5.65662 44.6402 5.61942 44.4146 5.61942H43.2776V4.92188H44.4146C44.7518 4.92188 45.0598 4.97884 45.3389 5.09277C45.6179 5.20438 45.8585 5.36598 46.0608 5.57757C46.2654 5.78916 46.4224 6.0426 46.5317 6.33789C46.6409 6.63318 46.6956 6.96336 46.6956 7.3284V7.59696C46.6956 7.96201 46.6409 8.29218 46.5317 8.58747C46.4224 8.88277 46.2654 9.13621 46.0608 9.3478C45.8562 9.55706 45.6121 9.71866 45.3284 9.83259C45.0471 9.9442 44.732 10 44.3832 10ZM43.7833 4.92188V10H42.9079V4.92188H43.7833ZM49.0498 10H47.9651L47.9721 9.30594H49.0498C49.3637 9.30594 49.6264 9.23735 49.838 9.10017C50.0519 8.96298 50.2124 8.76651 50.3193 8.51074C50.4286 8.25498 50.4833 7.95038 50.4833 7.59696V7.32143C50.4833 7.04706 50.4519 6.80408 50.3891 6.59249C50.3286 6.38091 50.238 6.20303 50.117 6.05887C49.9985 5.91471 49.852 5.80543 49.6776 5.73103C49.5055 5.65662 49.3067 5.61942 49.0812 5.61942H47.9442V4.92188H49.0812C49.4183 4.92188 49.7264 4.97884 50.0054 5.09277C50.2845 5.20438 50.5251 5.36598 50.7274 5.57757C50.932 5.78916 51.089 6.0426 51.1982 6.33789C51.3075 6.63318 51.3622 6.96336 51.3622 7.3284V7.59696C51.3622 7.96201 51.3075 8.29218 51.1982 8.58747C51.089 8.88277 50.932 9.13621 50.7274 9.3478C50.5228 9.55706 50.2786 9.71866 49.995 9.83259C49.7136 9.9442 49.3986 10 49.0498 10ZM48.4499 4.92188V10H47.5745V4.92188H48.4499ZM52.5724 4.92188L53.7513 7.34584L54.9301 4.92188H55.8997L54.1907 8.13058V10H53.3083V8.13058L51.5993 4.92188H52.5724ZM55.6381 9.58147C55.6381 9.45126 55.6823 9.34198 55.7706 9.25363C55.859 9.16295 55.9787 9.11761 56.1299 9.11761C56.2833 9.11761 56.4031 9.16295 56.4891 9.25363C56.5775 9.34198 56.6217 9.45126 56.6217 9.58147C56.6217 9.71168 56.5775 9.82096 56.4891 9.90932C56.4031 9.99767 56.2833 10.0419 56.1299 10.0419C55.9787 10.0419 55.859 9.99767 55.7706 9.90932C55.6823 9.82096 55.6381 9.71168 55.6381 9.58147ZM60.6744 8.34682H61.5463C61.5184 8.67932 61.4254 8.97577 61.2673 9.23619C61.1092 9.49428 60.8871 9.69773 60.6011 9.84654C60.3151 9.99535 59.9675 10.0698 59.5583 10.0698C59.2444 10.0698 58.9619 10.014 58.7108 9.90234C58.4597 9.78841 58.2446 9.62798 58.0656 9.42104C57.8865 9.21177 57.7493 8.9595 57.654 8.6642C57.561 8.36891 57.5145 8.03874 57.5145 7.67369V7.25167C57.5145 6.88663 57.5622 6.55645 57.6575 6.26116C57.7552 5.96587 57.8947 5.71359 58.076 5.50432C58.2574 5.29274 58.4748 5.13114 58.7282 5.01953C58.984 4.90792 59.2712 4.85212 59.5897 4.85212C59.9943 4.85212 60.3361 4.92653 60.6151 5.07533C60.8941 5.22414 61.1104 5.42992 61.2638 5.69266C61.4196 5.9554 61.5149 6.25651 61.5498 6.59598H60.6779C60.6546 6.37742 60.6035 6.19024 60.5244 6.03446C60.4477 5.87867 60.3338 5.76009 60.1826 5.67871C60.0315 5.59501 59.8338 5.55315 59.5897 5.55315C59.3897 5.55315 59.2154 5.59036 59.0665 5.66476C58.9177 5.73916 58.7933 5.84845 58.6934 5.99261C58.5934 6.13677 58.5178 6.31464 58.4667 6.52623C58.4178 6.73549 58.3934 6.97498 58.3934 7.2447V7.67369C58.3934 7.92946 58.4155 8.16197 58.4597 8.37123C58.5062 8.57817 58.5759 8.75605 58.6689 8.90485C58.7643 9.05366 58.8852 9.16876 59.0317 9.25014C59.1782 9.33152 59.3537 9.37221 59.5583 9.37221C59.8071 9.37221 60.0082 9.33268 60.1617 9.25363C60.3175 9.17457 60.4349 9.05948 60.5139 8.90834C60.5953 8.75488 60.6488 8.56771 60.6744 8.34682ZM66.3908 7.32143V7.60045C66.3908 7.9841 66.3408 8.32822 66.2408 8.63281C66.1408 8.93741 65.9978 9.19666 65.8118 9.41057C65.6281 9.62449 65.4072 9.78841 65.1491 9.90234C64.891 10.014 64.605 10.0698 64.2912 10.0698C63.9796 10.0698 63.6948 10.014 63.4367 9.90234C63.1809 9.78841 62.9588 9.62449 62.7705 9.41057C62.5822 9.19666 62.4357 8.93741 62.3311 8.63281C62.2287 8.32822 62.1776 7.9841 62.1776 7.60045V7.32143C62.1776 6.93778 62.2287 6.59482 62.3311 6.29255C62.4334 5.98796 62.5775 5.7287 62.7635 5.51479C62.9519 5.29855 63.1739 5.13463 63.4297 5.02302C63.6878 4.90909 63.9726 4.85212 64.2842 4.85212C64.5981 4.85212 64.8841 4.90909 65.1422 5.02302C65.4002 5.13463 65.6223 5.29855 65.8083 5.51479C65.9943 5.7287 66.1373 5.98796 66.2373 6.29255C66.3396 6.59482 66.3908 6.93778 66.3908 7.32143ZM65.5153 7.60045V7.31445C65.5153 7.03078 65.4874 6.78083 65.4316 6.56459C65.3782 6.34603 65.2979 6.1635 65.191 6.01702C65.0864 5.86821 64.9573 5.7566 64.8038 5.6822C64.6504 5.60547 64.4772 5.5671 64.2842 5.5671C64.0912 5.5671 63.9191 5.60547 63.768 5.6822C63.6169 5.7566 63.4878 5.86821 63.3809 6.01702C63.2762 6.1635 63.196 6.34603 63.1402 6.56459C63.0844 6.78083 63.0565 7.03078 63.0565 7.31445V7.60045C63.0565 7.88411 63.0844 8.13523 63.1402 8.35379C63.196 8.57236 63.2774 8.75721 63.3843 8.90834C63.4936 9.05715 63.6238 9.16992 63.775 9.24665C63.9261 9.32106 64.0982 9.35826 64.2912 9.35826C64.4865 9.35826 64.6597 9.32106 64.8108 9.24665C64.962 9.16992 65.0898 9.05715 65.1945 8.90834C65.2991 8.75721 65.3782 8.57236 65.4316 8.35379C65.4874 8.13523 65.5153 7.88411 65.5153 7.60045ZM67.6219 4.92188H68.4032L69.8715 8.83859L71.3364 4.92188H72.1176L70.1784 10H69.5576L67.6219 4.92188ZM67.2662 4.92188H68.0091L68.1381 8.31194V10H67.2662V4.92188ZM71.7305 4.92188H72.4768V10H71.6014V8.31194L71.7305 4.92188Z" fill="#424242"></path>
    <path d="M26.8783 16.7278C26.8783 16.6232 26.8621 16.5302 26.8295 16.4488C26.7993 16.3674 26.7447 16.293 26.6656 16.2256C26.5865 16.1582 26.4749 16.0931 26.3308 16.0303C26.1889 15.9652 26.0076 15.8989 25.7867 15.8315C25.5449 15.7571 25.3217 15.6745 25.117 15.5838C24.9148 15.4908 24.7381 15.3839 24.5869 15.263C24.4358 15.1397 24.3184 14.9991 24.2347 14.841C24.151 14.6805 24.1091 14.4957 24.1091 14.2864C24.1091 14.0795 24.1521 13.8911 24.2381 13.7214C24.3265 13.5517 24.4509 13.4052 24.6113 13.2819C24.7741 13.1564 24.9659 13.0599 25.1868 12.9925C25.4077 12.9227 25.6518 12.8878 25.9192 12.8878C26.2959 12.8878 26.6203 12.9576 26.8923 13.0971C27.1667 13.2366 27.3771 13.4238 27.5236 13.6586C27.6724 13.8935 27.7468 14.1527 27.7468 14.4364H26.8783C26.8783 14.269 26.8423 14.1213 26.7702 13.9934C26.7005 13.8632 26.5935 13.7609 26.4494 13.6865C26.3075 13.6121 26.1273 13.5749 25.9088 13.5749C25.7018 13.5749 25.5298 13.6063 25.3926 13.6691C25.2554 13.7319 25.1531 13.8167 25.0857 13.9237C25.0182 14.0306 24.9845 14.1516 24.9845 14.2864C24.9845 14.3817 25.0066 14.4689 25.0508 14.548C25.095 14.6247 25.1624 14.6968 25.2531 14.7642C25.3438 14.8293 25.4577 14.8909 25.5949 14.9491C25.7321 15.0072 25.8936 15.063 26.0797 15.1165C26.361 15.2002 26.6063 15.2932 26.8156 15.3955C27.0248 15.4955 27.1992 15.6094 27.3387 15.7373C27.4782 15.8652 27.5829 16.0105 27.6526 16.1733C27.7224 16.3337 27.7573 16.5162 27.7573 16.7208C27.7573 16.9348 27.7142 17.1277 27.6282 17.2998C27.5422 17.4695 27.4189 17.6149 27.2585 17.7358C27.1004 17.8544 26.9097 17.9462 26.6865 18.0113C26.4656 18.0741 26.2192 18.1055 25.9471 18.1055C25.703 18.1055 25.4623 18.0729 25.2252 18.0078C24.9903 17.9427 24.7764 17.8439 24.5834 17.7114C24.3904 17.5765 24.237 17.4091 24.123 17.2091C24.0091 17.0068 23.9522 16.7708 23.9522 16.5011H24.8276C24.8276 16.6662 24.8555 16.8069 24.9113 16.9231C24.9694 17.0394 25.0496 17.1347 25.1519 17.2091C25.2542 17.2812 25.3728 17.3347 25.5077 17.3696C25.6449 17.4044 25.7913 17.4219 25.9471 17.4219C26.1517 17.4219 26.3226 17.3928 26.4598 17.3347C26.5993 17.2766 26.704 17.1952 26.7737 17.0905C26.8435 16.9859 26.8783 16.865 26.8783 16.7278ZM29.4662 12.9576V18.0357H28.5908V12.9576H29.4662ZM32.5389 12.9576V18.0357H31.6705V12.9576H32.5389ZM34.1328 12.9576V13.6551H30.0905V12.9576H34.1328ZM38.1263 17.3417V18.0357H35.4302V17.3417H38.1263ZM35.6779 12.9576V18.0357H34.8025V12.9576H35.6779ZM37.774 15.0781V15.7617H35.4302V15.0781H37.774ZM38.1088 12.9576V13.6551H35.4302V12.9576H38.1088ZM43.2916 16.7278C43.2916 16.6232 43.2753 16.5302 43.2427 16.4488C43.2125 16.3674 43.1579 16.293 43.0788 16.2256C42.9998 16.1582 42.8882 16.0931 42.744 16.0303C42.6022 15.9652 42.4208 15.8989 42.1999 15.8315C41.9581 15.7571 41.7349 15.6745 41.5303 15.5838C41.328 15.4908 41.1513 15.3839 41.0001 15.263C40.849 15.1397 40.7316 14.9991 40.6479 14.841C40.5642 14.6805 40.5223 14.4957 40.5223 14.2864C40.5223 14.0795 40.5653 13.8911 40.6514 13.7214C40.7397 13.5517 40.8641 13.4052 41.0246 13.2819C41.1873 13.1564 41.3791 13.0599 41.6 12.9925C41.8209 12.9227 42.0651 12.8878 42.3325 12.8878C42.7091 12.8878 43.0335 12.9576 43.3055 13.0971C43.5799 13.2366 43.7903 13.4238 43.9368 13.6586C44.0856 13.8935 44.16 14.1527 44.16 14.4364H43.2916C43.2916 14.269 43.2555 14.1213 43.1835 13.9934C43.1137 13.8632 43.0067 13.7609 42.8626 13.6865C42.7208 13.6121 42.5406 13.5749 42.322 13.5749C42.115 13.5749 41.943 13.6063 41.8058 13.6691C41.6686 13.7319 41.5663 13.8167 41.4989 13.9237C41.4315 14.0306 41.3977 14.1516 41.3977 14.2864C41.3977 14.3817 41.4198 14.4689 41.464 14.548C41.5082 14.6247 41.5756 14.6968 41.6663 14.7642C41.757 14.8293 41.8709 14.8909 42.0081 14.9491C42.1453 15.0072 42.3069 15.063 42.4929 15.1165C42.7742 15.2002 43.0195 15.2932 43.2288 15.3955C43.4381 15.4955 43.6124 15.6094 43.752 15.7373C43.8915 15.8652 43.9961 16.0105 44.0658 16.1733C44.1356 16.3337 44.1705 16.5162 44.1705 16.7208C44.1705 16.9348 44.1275 17.1277 44.0414 17.2998C43.9554 17.4695 43.8322 17.6149 43.6717 17.7358C43.5136 17.8544 43.323 17.9462 43.0998 18.0113C42.8789 18.0741 42.6324 18.1055 42.3604 18.1055C42.1162 18.1055 41.8756 18.0729 41.6384 18.0078C41.4036 17.9427 41.1896 17.8439 40.9967 17.7114C40.8037 17.5765 40.6502 17.4091 40.5363 17.2091C40.4223 17.0068 40.3654 16.7708 40.3654 16.5011H41.2408C41.2408 16.6662 41.2687 16.8069 41.3245 16.9231C41.3826 17.0394 41.4628 17.1347 41.5652 17.2091C41.6675 17.2812 41.786 17.3347 41.9209 17.3696C42.0581 17.4044 42.2046 17.4219 42.3604 17.4219C42.565 17.4219 42.7359 17.3928 42.873 17.3347C43.0126 17.2766 43.1172 17.1952 43.1869 17.0905C43.2567 16.9859 43.2916 16.865 43.2916 16.7278ZM48.2686 17.3417V18.0357H45.5725V17.3417H48.2686ZM45.8202 12.9576V18.0357H44.9448V12.9576H45.8202ZM47.9163 15.0781V15.7617H45.5725V15.0781H47.9163ZM48.2511 12.9576V13.6551H45.5725V12.9576H48.2511ZM51.983 16.3825H52.8549C52.827 16.715 52.734 17.0115 52.5759 17.2719C52.4178 17.53 52.1957 17.7334 51.9097 17.8823C51.6237 18.0311 51.2761 18.1055 50.8669 18.1055C50.553 18.1055 50.2705 18.0497 50.0194 17.9381C49.7683 17.8241 49.5532 17.6637 49.3742 17.4568C49.1951 17.2475 49.0579 16.9952 48.9626 16.6999C48.8696 16.4046 48.8231 16.0745 48.8231 15.7094V15.2874C48.8231 14.9223 48.8708 14.5922 48.9661 14.2969C49.0638 14.0016 49.2033 13.7493 49.3846 13.54C49.566 13.3284 49.7834 13.1669 50.0368 13.0552C50.2926 12.9436 50.5798 12.8878 50.8983 12.8878C51.3029 12.8878 51.6447 12.9622 51.9237 13.111C52.2027 13.2599 52.4189 13.4656 52.5724 13.7284C52.7282 13.9911 52.8235 14.2922 52.8584 14.6317H51.9865C51.9632 14.4131 51.9121 14.226 51.833 14.0702C51.7563 13.9144 51.6423 13.7958 51.4912 13.7144C51.3401 13.6307 51.1424 13.5889 50.8983 13.5889C50.6983 13.5889 50.5239 13.6261 50.3751 13.7005C50.2263 13.7749 50.1019 13.8842 50.002 14.0283C49.902 14.1725 49.8264 14.3504 49.7753 14.5619C49.7264 14.7712 49.702 15.0107 49.702 15.2804V15.7094C49.702 15.9652 49.7241 16.1977 49.7683 16.4069C49.8148 16.6139 49.8845 16.7918 49.9775 16.9406C50.0729 17.0894 50.1938 17.2045 50.3403 17.2859C50.4867 17.3672 50.6623 17.4079 50.8669 17.4079C51.1157 17.4079 51.3168 17.3684 51.4703 17.2893C51.6261 17.2103 51.7435 17.0952 51.8225 16.9441C51.9039 16.7906 51.9574 16.6034 51.983 16.3825ZM56.4996 12.9576H57.3715V16.3511C57.3715 16.7371 57.2878 17.0603 57.1204 17.3207C56.953 17.5811 56.7251 17.7776 56.4368 17.9102C56.1508 18.0404 55.8311 18.1055 55.4777 18.1055C55.1126 18.1055 54.7871 18.0404 54.5011 17.9102C54.2151 17.7776 53.9896 17.5811 53.8245 17.3207C53.6617 17.0603 53.5804 16.7371 53.5804 16.3511V12.9576H54.4523V16.3511C54.4523 16.5953 54.4941 16.7964 54.5778 16.9545C54.6616 17.1103 54.7801 17.2254 54.9336 17.2998C55.0871 17.3742 55.2684 17.4114 55.4777 17.4114C55.6869 17.4114 55.8671 17.3742 56.0183 17.2998C56.1717 17.2254 56.2903 17.1103 56.374 16.9545C56.4577 16.7964 56.4996 16.5953 56.4996 16.3511V12.9576ZM58.3237 12.9576H60.1198C60.5058 12.9576 60.8348 13.0157 61.1069 13.132C61.3789 13.2482 61.587 13.4203 61.7312 13.6482C61.8777 13.8737 61.9509 14.1527 61.9509 14.4852C61.9509 14.7387 61.9044 14.9619 61.8114 15.1549C61.7184 15.3478 61.587 15.5106 61.4173 15.6431C61.2475 15.7733 61.0452 15.8745 60.8104 15.9466L60.5453 16.0756H58.9305L58.9236 15.3816H60.1338C60.3431 15.3816 60.5174 15.3444 60.6569 15.2699C60.7965 15.1955 60.9011 15.0944 60.9708 14.9665C61.0429 14.8363 61.079 14.6898 61.079 14.5271C61.079 14.3504 61.0441 14.1969 60.9743 14.0667C60.9069 13.9342 60.8023 13.833 60.6604 13.7633C60.5186 13.6912 60.3384 13.6551 60.1198 13.6551H59.1991V18.0357H58.3237V12.9576ZM61.222 18.0357L60.0292 15.7547L60.9464 15.7513L62.1567 17.9904V18.0357H61.222ZM63.7575 12.9576V18.0357H62.8821V12.9576H63.7575ZM66.8302 12.9576V18.0357H65.9618V12.9576H66.8302ZM68.4241 12.9576V13.6551H64.3818V12.9576H68.4241ZM69.6343 12.9576L70.8132 15.3816L71.992 12.9576H72.9616L71.2526 16.1663V18.0357H70.3703V16.1663L68.6613 12.9576H69.6343Z" fill="#424242"></path>
    <path d="M37.958 30.8503L40.9331 23.0903H43.1542L38.7806 33.0714H37.3273L37.958 30.8503ZM37.6632 23.0903L38.2116 31.0217L38.1773 33.0714H36.772L35.5518 23.0903H37.6632ZM48.2613 31.4125L47.9665 33.0714H43.7575L44.0385 31.4125H48.2613ZM46.0951 23.0903L44.3676 33.0714H42.407L44.1276 23.0903H46.0951ZM48.4396 27.1348L48.1585 28.7458H44.5047L44.7789 27.1348H48.4396ZM49.6872 23.0903L49.3924 24.7561H45.1902L45.485 23.0903H49.6872ZM50.8252 23.0903L53.8414 23.0971C54.4401 23.1154 54.9428 23.2457 55.3496 23.4879C55.7609 23.7255 56.0648 24.0637 56.2613 24.5025C56.4624 24.9366 56.5378 25.453 56.4875 26.0517C56.4464 26.5499 56.339 26.9863 56.1653 27.3611C55.9962 27.7312 55.7586 28.0557 55.4524 28.3345C55.1462 28.6087 54.7715 28.8486 54.3281 29.0543L53.6632 29.4108H51.0445L51.3324 27.745L52.9914 27.7587C53.2976 27.7541 53.5581 27.6833 53.7729 27.5462C53.9877 27.409 54.1568 27.224 54.2802 26.9909C54.4081 26.7578 54.4904 26.4996 54.5269 26.2162C54.5544 26.0015 54.5567 25.7844 54.5338 25.565C54.5155 25.3456 54.447 25.1606 54.3281 25.0097C54.2093 24.8589 54.0197 24.7767 53.7592 24.763L52.5047 24.7561L51.0651 33.0714H49.1045L50.8252 23.0903ZM53.5398 33.0714L52.5321 28.6224L54.5064 28.6156L55.6306 32.9617V33.0714H53.5398ZM60.4018 23.0903L58.6675 33.0714H56.7206L58.455 23.0903H60.4018ZM64.0008 23.0903L62.2733 33.0714H60.3127L62.0334 23.0903H64.0008ZM66.3041 27.3336L66.0094 28.9926H62.4721L62.7669 27.3336H66.3041ZM67.4078 23.0903L67.1131 24.7561H63.2125L63.5004 23.0903H67.4078ZM70.5612 23.0903L68.8269 33.0714H66.88L68.6143 23.0903H70.5612ZM76.3264 31.4125L76.0316 33.0714H71.8226L72.1036 31.4125H76.3264ZM74.1602 23.0903L72.4327 33.0714H70.4721L72.1927 23.0903H74.1602ZM76.5047 27.1348L76.2236 28.7458H72.5698L72.844 27.1348H76.5047ZM77.7523 23.0903L77.4575 24.7561H73.2553L73.5501 23.0903H77.7523ZM79.7951 33.0714H77.9854L78.287 31.4125L79.8911 31.4193C80.4304 31.4239 80.86 31.3142 81.1799 31.0903C81.5044 30.8618 81.7466 30.5556 81.9065 30.1717C82.0665 29.7832 82.183 29.3445 82.2562 28.8555L82.4755 27.2925C82.5121 27.0046 82.5372 26.7144 82.5509 26.4219C82.5692 26.1294 82.5464 25.8598 82.4824 25.613C82.4184 25.3662 82.2904 25.1674 82.0985 25.0166C81.9111 24.8612 81.6323 24.7767 81.2622 24.763L79.3907 24.7561L79.6855 23.0903L81.3444 23.0971C81.9477 23.1109 82.4595 23.2342 82.88 23.4673C83.3004 23.7004 83.6363 24.0135 83.8877 24.4065C84.1436 24.7995 84.315 25.2451 84.4018 25.7432C84.4887 26.2414 84.4978 26.7647 84.4292 27.3131L84.1962 28.8623C84.1048 29.4519 83.9425 30.0049 83.7095 30.5213C83.4809 31.0332 83.1816 31.481 82.8114 31.8649C82.4458 32.2442 82.0117 32.5413 81.5089 32.7561C81.0108 32.9709 80.4395 33.076 79.7951 33.0714ZM80.8508 23.0903L79.1233 33.0714H77.1628L78.8834 23.0903H80.8508Z" fill="#424242"></path>
    <path d="M48.3738 40.519L49.6159 39.6414C49.7566 39.5359 49.8685 39.4192 49.9516 39.2913C50.0379 39.1634 50.0891 39.0116 50.1051 38.8357C50.1146 38.7238 50.0955 38.604 50.0475 38.4761C49.9995 38.345 49.9036 38.2795 49.7598 38.2795C49.6383 38.2763 49.5376 38.3162 49.4576 38.3993C49.3809 38.4793 49.3202 38.5768 49.2754 38.6919C49.2338 38.807 49.2067 38.9141 49.1939 39.0132C49.1715 39.1794 49.1875 39.3441 49.2418 39.5071C49.2962 39.6702 49.3649 39.83 49.4481 39.9867C49.5344 40.1402 49.6143 40.2856 49.6878 40.4231L51.7356 44.25H50.3304L48.6951 41.1568C48.5832 40.9394 48.4745 40.7172 48.369 40.4902C48.2635 40.2632 48.1788 40.0283 48.1149 39.7853C48.0541 39.5423 48.0349 39.2945 48.0573 39.042C48.0829 38.7095 48.1692 38.3993 48.3163 38.1116C48.4665 37.8207 48.6712 37.5889 48.9301 37.4162C49.1923 37.2404 49.504 37.1557 49.8653 37.1621C50.1498 37.1717 50.3976 37.2516 50.6086 37.4019C50.8196 37.5489 50.9795 37.7423 51.0882 37.9821C51.1969 38.2187 51.2432 38.4761 51.2272 38.7542C51.2144 38.9812 51.1649 39.1906 51.0786 39.3824C50.9922 39.5743 50.8819 39.7501 50.7477 39.91C50.6134 40.0666 50.4599 40.2089 50.2873 40.3368L48.7911 41.435C48.7175 41.5085 48.6552 41.5964 48.604 41.6987C48.5561 41.7978 48.5145 41.9033 48.4793 42.0152C48.4442 42.1239 48.4218 42.2278 48.4122 42.327C48.3994 42.4421 48.4026 42.5699 48.4218 42.7106C48.441 42.8481 48.4857 42.968 48.5561 43.0703C48.6296 43.1726 48.7399 43.2285 48.887 43.2381C49.1811 43.2573 49.4401 43.187 49.6639 43.0271C49.8908 42.8673 50.0843 42.6595 50.2441 42.4037C50.4072 42.1479 50.5351 41.8794 50.6278 41.598C50.7205 41.3167 50.7828 41.0593 50.8148 40.8259L51.913 40.8211C51.8842 41.1632 51.8219 41.4973 51.726 41.8234C51.6301 42.1463 51.4942 42.45 51.3183 42.7346C51.1425 43.0159 50.9219 43.2701 50.6565 43.4971C50.631 43.5227 50.6022 43.5466 50.5702 43.569C50.5383 43.5914 50.5095 43.6154 50.4839 43.641C50.2313 43.8552 49.9596 44.0294 49.6686 44.1637C49.3809 44.2948 49.066 44.3555 48.7239 44.3459C48.3531 44.3395 48.0397 44.2484 47.784 44.0726C47.5282 43.8967 47.3364 43.6633 47.2085 43.3724C47.0806 43.0815 47.0295 42.7602 47.055 42.4085C47.0742 42.1207 47.1478 41.865 47.2756 41.6412C47.4035 41.4142 47.5634 41.2096 47.7552 41.0273C47.9502 40.8451 48.1564 40.6757 48.3738 40.519ZM57.8787 42.3749C57.8979 42.231 57.8931 42.1064 57.8644 42.0009C57.8388 41.8954 57.7908 41.8026 57.7205 41.7227C57.6534 41.6396 57.5702 41.5661 57.4711 41.5021C57.372 41.435 57.2601 41.3726 57.1354 41.3151C56.9052 41.2032 56.691 41.0801 56.4928 40.9458C56.2946 40.8115 56.1188 40.6597 55.9653 40.4902C55.815 40.3208 55.7015 40.1274 55.6248 39.91C55.5481 39.6894 55.5193 39.4416 55.5385 39.1666C55.5609 38.8533 55.6408 38.572 55.7783 38.3226C55.9157 38.0732 56.0948 37.8622 56.3154 37.6896C56.536 37.5138 56.7837 37.3827 57.0587 37.2964C57.3336 37.2068 57.6214 37.1653 57.9219 37.1717C58.3407 37.1813 58.6924 37.2836 58.9769 37.4786C59.2615 37.6704 59.4725 37.9278 59.61 38.2507C59.7506 38.5704 59.8146 38.9301 59.8018 39.3297L58.435 39.3249C58.4446 39.1714 58.435 39.0164 58.4063 38.8597C58.3807 38.7031 58.3199 38.5752 58.224 38.4761C58.1313 38.3738 57.989 38.321 57.7972 38.3178C57.6278 38.3178 57.4791 38.3562 57.3512 38.4329C57.2233 38.5064 57.1194 38.6072 57.0395 38.735C56.9596 38.8629 56.9084 39.0068 56.8861 39.1666C56.8701 39.2913 56.8829 39.4032 56.9244 39.5023C56.9692 39.6014 57.0299 39.691 57.1067 39.7709C57.1866 39.8476 57.2761 39.918 57.3752 39.9819C57.4743 40.0458 57.5734 40.0986 57.6725 40.1402C57.9123 40.2616 58.1329 40.3895 58.3343 40.5238C58.5389 40.6581 58.7116 40.8131 58.8523 40.989C58.9961 41.1616 59.1 41.3614 59.164 41.5884C59.2311 41.8154 59.2551 42.0744 59.2359 42.3653C59.2103 42.6882 59.132 42.9728 59.0009 43.2189C58.873 43.4651 58.7036 43.6745 58.4926 43.8472C58.2816 44.0166 58.0402 44.1445 57.7684 44.2308C57.4967 44.3171 57.2058 44.3571 56.8956 44.3507C56.5632 44.3411 56.2658 44.2788 56.0037 44.1637C55.7415 44.0454 55.5209 43.8839 55.3419 43.6793C55.166 43.4715 55.0349 43.2285 54.9486 42.9504C54.8623 42.669 54.8287 42.3669 54.8479 42.044L56.2147 42.0488C56.2051 42.1991 56.2067 42.3445 56.2195 42.4852C56.2323 42.6259 56.2674 42.749 56.325 42.8545C56.3825 42.96 56.4656 43.0447 56.5743 43.1086C56.683 43.1726 56.8269 43.2046 57.0059 43.2046C57.1754 43.2046 57.3209 43.1694 57.4423 43.0991C57.5638 43.0255 57.6613 42.9264 57.7349 42.8017C57.8084 42.677 57.8564 42.5348 57.8787 42.3749ZM63.9164 43.0895L63.7102 44.25H60.7657L60.9623 43.0895H63.9164ZM62.401 37.2676L61.1925 44.25H59.821L61.0247 37.2676H62.401ZM64.0411 40.097L63.8445 41.224H61.2884L61.4803 40.097H64.0411ZM64.9139 37.2676L64.7077 38.4329H61.768L61.9742 37.2676H64.9139ZM68.1126 41.9289L69.4314 41.9097C69.3802 42.3957 69.2444 42.8241 69.0238 43.195C68.8064 43.5658 68.5106 43.8536 68.1366 44.0582C67.7657 44.2628 67.3277 44.3587 66.8226 44.3459C66.4006 44.3363 66.0537 44.2452 65.7819 44.0726C65.5102 43.8967 65.3008 43.6665 65.1537 43.382C65.0066 43.0943 64.9155 42.7761 64.8804 42.4277C64.8452 42.076 64.85 41.7179 64.8947 41.3534L65.077 40.1689C65.1345 39.7821 65.232 39.408 65.3695 39.0468C65.507 38.6823 65.6892 38.3578 65.9162 38.0732C66.1432 37.7855 66.4213 37.5601 66.7506 37.3971C67.0831 37.234 67.4668 37.1573 67.9016 37.1669C68.4035 37.1765 68.8 37.2932 69.0909 37.517C69.385 37.7375 69.596 38.0333 69.7239 38.4041C69.8518 38.775 69.9174 39.1858 69.9205 39.6366L68.549 39.6318C68.5618 39.4144 68.5586 39.2082 68.5394 39.0132C68.5202 38.815 68.4563 38.6535 68.3476 38.5288C68.2421 38.4009 68.0582 38.3322 67.7961 38.3226C67.5403 38.313 67.3293 38.3642 67.1631 38.4761C67 38.588 66.8689 38.7366 66.7698 38.9221C66.6739 39.1075 66.6004 39.3089 66.5492 39.5263C66.5013 39.7437 66.4629 39.9547 66.4341 40.1593L66.2663 41.3582C66.2439 41.5245 66.2231 41.7099 66.2039 41.9145C66.188 42.1191 66.1928 42.3174 66.2183 42.5092C66.2439 42.701 66.3094 42.8609 66.415 42.9888C66.5205 43.1166 66.6915 43.187 66.9281 43.1998C67.2062 43.2094 67.4236 43.1582 67.5803 43.0463C67.7369 42.9344 67.8536 42.7809 67.9304 42.5859C68.0103 42.3877 68.071 42.1687 68.1126 41.9289ZM74.1839 37.2676H75.5506L74.7353 42.0584C74.6714 42.5284 74.5307 42.9376 74.3133 43.2861C74.0991 43.6314 73.813 43.8967 73.4549 44.0822C73.0968 44.2676 72.6748 44.3571 72.1889 44.3507C71.7285 44.3411 71.3464 44.2404 71.0427 44.0486C70.739 43.8536 70.5216 43.5866 70.3905 43.2477C70.2626 42.9056 70.2243 42.5108 70.2754 42.0632L71.0907 37.2676H72.4526L71.6518 42.068C71.6294 42.2598 71.6262 42.4405 71.6422 42.6099C71.6582 42.7761 71.7157 42.912 71.8148 43.0175C71.9139 43.1198 72.077 43.1758 72.304 43.1854C72.5438 43.195 72.7356 43.1518 72.8794 43.0559C73.0265 42.96 73.1368 42.8257 73.2103 42.6531C73.2871 42.4772 73.343 42.2822 73.3782 42.068L74.1839 37.2676ZM76.5865 37.2676L78.6965 37.2724C79.1153 37.2852 79.467 37.3763 79.7516 37.5457C80.0393 37.712 80.2519 37.9486 80.3894 38.2555C80.5301 38.5592 80.5828 38.9205 80.5476 39.3393C80.5189 39.6878 80.4437 39.9931 80.3222 40.2552C80.204 40.5142 80.0377 40.7412 79.8235 40.9362C79.6093 41.1281 79.3471 41.2959 79.037 41.4398L78.5718 41.6891H76.7399L76.9413 40.5238L78.1019 40.5334C78.3161 40.5302 78.4983 40.4806 78.6486 40.3847C78.7988 40.2888 78.9171 40.1593 79.0035 39.9963C79.093 39.8332 79.1505 39.6526 79.1761 39.4544C79.1953 39.3041 79.1969 39.1523 79.1809 38.9988C79.1681 38.8453 79.1201 38.7159 79.037 38.6104C78.9539 38.5048 78.8212 38.4473 78.639 38.4377L77.7614 38.4329L76.7543 44.25H75.3828L76.5865 37.2676ZM78.4855 44.25L77.7806 41.1376L79.1617 41.1328L79.9482 44.1733V44.25H78.4855ZM84.7486 43.0895L84.5424 44.25H81.5979L81.7945 43.0895H84.7486ZM83.2332 37.2676L82.0247 44.25H80.6531L81.8568 37.2676H83.2332ZM84.8733 40.097L84.6767 41.224H82.1206L82.3124 40.097H84.8733ZM85.7461 37.2676L85.5399 38.4329H82.6002L82.8064 37.2676H85.7461Z" fill="#424242"></path>
    <path fill-rule="evenodd" clip-rule="evenodd" d="M78.5714 4.89296H81.25C81.7431 4.89296 82.1429 5.29271 82.1429 5.78582V9.35725L77.6786 9.35725V5.78582C77.6786 5.29271 78.0783 4.89296 78.5714 4.89296ZM76.7857 9.35725V5.78582C76.7857 4.7996 77.5852 4.0001 78.5714 4.0001H81.25C82.2362 4.0001 83.0357 4.7996 83.0357 5.78582V9.35725L83.9286 9.35725C84.4217 9.35725 84.8214 9.75699 84.8214 10.2501V17.393C84.8214 17.8861 84.4217 18.2858 83.9286 18.2858H75.8929C75.3997 18.2858 75 17.8861 75 17.393V10.2501C75 9.757 75.3997 9.35725 75.8929 9.35725H76.7857ZM80.3571 13.7453C80.8773 13.5615 81.25 13.0654 81.25 12.4822C81.25 11.7426 80.6504 11.143 79.9107 11.143C79.171 11.143 78.5714 11.7426 78.5714 12.4822C78.5714 13.0654 78.9441 13.5615 79.4643 13.7453V15.6072H80.3571V13.7453Z" fill="#424242"></path>
    <path d="M85.1071 63.4388V56.8912C85.1071 56.8912 80.7351 56.4013 78.3402 55.4881C75.9453 54.5749 72.8421 52.2143 72.8421 52.2143C72.8421 52.2143 69.6563 54.5749 67.344 55.4881C65.0317 56.4013 61 56.8912 61 56.8912V63.4388C61 68.1156 61.7157 70.9218 63.5376 73.7279C65.3595 76.534 72.8421 81.6786 72.8421 81.6786C72.8421 81.6786 79.9452 77.0017 82.1466 73.7279C84.348 70.4541 85.1071 67.648 85.1071 63.4388Z" fill="#52D300" stroke="#338100" stroke-width="1.78571"></path>
    <path d="M65.4643 65.1607L70.8502 70.0715L80.6429 61.1429" stroke="white" stroke-width="2.67857"></path>
    <defs>
      <linearGradient id="paint0_linear_748_384" x1="44.5" y1="-1.3262e-06" x2="89" y2="86.3166" gradientUnits="userSpaceOnUse">
        <stop stop-color="#81C500"></stop>
        <stop offset="0.383536" stop-color="#9DE317"></stop>
        <stop offset="0.956314" stop-color="#81C500"></stop>
      </linearGradient>
    </defs>
  </symbol>
  
</svg>

