<svg width="0" height="0" class="hidden">
  
  <symbol fill="none" xmlns="http://www.w3.org/2000/svg" viewBox="0 0 235 194" id="label">
    <path d="M0 0H235V168L117.5 194L0 168V0Z" fill="url(#paint0_linear_404_2481)"></path>
    <path d="M49.6039 69V47.94H55.0899C55.9913 47.94 56.8406 48.0093 57.6379 48.148C58.4526 48.2867 59.1719 48.5553 59.7959 48.954C60.4199 49.3353 60.9053 49.89 61.2519 50.618C61.6159 51.3287 61.7979 52.2733 61.7979 53.452C61.7979 54.3013 61.6679 55.0207 61.4079 55.61C61.1653 56.182 60.8099 56.6413 60.3419 56.988C59.8913 57.3347 59.3453 57.5687 58.7039 57.69C59.5186 57.794 60.2033 58.0627 60.7579 58.496C61.3126 58.912 61.7286 59.4753 62.0059 60.186C62.3006 60.8967 62.4479 61.7547 62.4479 62.76C62.4479 63.852 62.3006 64.7967 62.0059 65.594C61.7286 66.374 61.3213 67.0153 60.7839 67.518C60.2466 68.0207 59.5793 68.3933 58.7819 68.636C58.0019 68.8787 57.1006 69 56.0779 69H49.6039ZM54.2579 65.75H55.2459C56.2686 65.75 56.9706 65.49 57.3519 64.97C57.7506 64.45 57.9499 63.6873 57.9499 62.682C57.9499 61.8847 57.8633 61.252 57.6899 60.784C57.5166 60.316 57.2306 59.978 56.8319 59.77C56.4333 59.5447 55.8959 59.432 55.2199 59.432H54.2579V65.75ZM54.2579 56.364H55.1679C55.8786 56.364 56.4159 56.26 56.7799 56.052C57.1439 55.8267 57.3866 55.506 57.5079 55.09C57.6466 54.674 57.7159 54.1713 57.7159 53.582C57.7159 53.0273 57.6119 52.568 57.4039 52.204C57.2133 51.8227 56.9186 51.5367 56.5199 51.346C56.1386 51.1553 55.6533 51.06 55.0639 51.06H54.2579V56.364ZM70.9211 69.312C69.3438 69.312 68.0958 69.0347 67.1771 68.48C66.2584 67.9253 65.5998 67.128 65.2011 66.088C64.8024 65.048 64.6031 63.8087 64.6031 62.37V54.544C64.6031 53.088 64.8024 51.8487 65.2011 50.826C65.5998 49.8033 66.2584 49.0233 67.1771 48.486C68.0958 47.9313 69.3438 47.654 70.9211 47.654C72.5158 47.654 73.7724 47.9313 74.6911 48.486C75.6271 49.0233 76.2944 49.8033 76.6931 50.826C77.0918 51.8487 77.2911 53.088 77.2911 54.544V62.37C77.2911 63.8087 77.0918 65.048 76.6931 66.088C76.2944 67.128 75.6271 67.9253 74.6911 68.48C73.7724 69.0347 72.5158 69.312 70.9211 69.312ZM70.9211 66.01C71.4064 66.01 71.7618 65.8887 71.9871 65.646C72.2124 65.4033 72.3598 65.0913 72.4291 64.71C72.4984 64.3287 72.5331 63.9387 72.5331 63.54V53.4C72.5331 52.984 72.4984 52.594 72.4291 52.23C72.3598 51.8487 72.2124 51.5367 71.9871 51.294C71.7618 51.0513 71.4064 50.93 70.9211 50.93C70.4704 50.93 70.1324 51.0513 69.9071 51.294C69.6818 51.5367 69.5344 51.8487 69.4651 52.23C69.3958 52.594 69.3611 52.984 69.3611 53.4V63.54C69.3611 63.9387 69.3871 64.3287 69.4391 64.71C69.5084 65.0913 69.6471 65.4033 69.8551 65.646C70.0804 65.8887 70.4358 66.01 70.9211 66.01ZM80.1235 69V47.94H85.4535C87.2908 47.94 88.7208 48.174 89.7435 48.642C90.7661 49.0927 91.4855 49.812 91.9015 50.8C92.3175 51.7707 92.5255 53.036 92.5255 54.596V62.24C92.5255 63.8173 92.3175 65.1087 91.9015 66.114C91.4855 67.102 90.7661 67.83 89.7435 68.298C88.7381 68.766 87.3255 69 85.5055 69H80.1235ZM84.7775 65.776H85.5055C86.2161 65.776 86.7275 65.672 87.0395 65.464C87.3515 65.256 87.5421 64.944 87.6115 64.528C87.6981 64.112 87.7415 63.592 87.7415 62.968V53.79C87.7415 53.166 87.6895 52.6633 87.5855 52.282C87.4988 51.9007 87.2995 51.6233 86.9875 51.45C86.6755 51.2767 86.1728 51.19 85.4795 51.19H84.7775V65.776ZM97.6036 69V60.394L93.5996 47.94H97.9936L99.9956 54.596L101.79 47.94H106.002L102.076 60.394V69H97.6036ZM114.426 69V47.94H119.912C120.814 47.94 121.663 48.0093 122.46 48.148C123.275 48.2867 123.994 48.5553 124.618 48.954C125.242 49.3353 125.728 49.89 126.074 50.618C126.438 51.3287 126.62 52.2733 126.62 53.452C126.62 54.3013 126.49 55.0207 126.23 55.61C125.988 56.182 125.632 56.6413 125.164 56.988C124.714 57.3347 124.168 57.5687 123.526 57.69C124.341 57.794 125.026 58.0627 125.58 58.496C126.135 58.912 126.551 59.4753 126.828 60.186C127.123 60.8967 127.27 61.7547 127.27 62.76C127.27 63.852 127.123 64.7967 126.828 65.594C126.551 66.374 126.144 67.0153 125.606 67.518C125.069 68.0207 124.402 68.3933 123.604 68.636C122.824 68.8787 121.923 69 120.9 69H114.426ZM119.08 65.75H120.068C121.091 65.75 121.793 65.49 122.174 64.97C122.573 64.45 122.772 63.6873 122.772 62.682C122.772 61.8847 122.686 61.252 122.512 60.784C122.339 60.316 122.053 59.978 121.654 59.77C121.256 59.5447 120.718 59.432 120.042 59.432H119.08V65.75ZM119.08 56.364H119.99C120.701 56.364 121.238 56.26 121.602 56.052C121.966 55.8267 122.209 55.506 122.33 55.09C122.469 54.674 122.538 54.1713 122.538 53.582C122.538 53.0273 122.434 52.568 122.226 52.204C122.036 51.8227 121.741 51.5367 121.342 51.346C120.961 51.1553 120.476 51.06 119.886 51.06H119.08V56.364ZM135.795 69.312C134.183 69.312 132.918 69.052 131.999 68.532C131.098 67.9947 130.465 67.2233 130.101 66.218C129.737 65.1953 129.555 63.9473 129.555 62.474V47.94H134.157V63.176C134.157 63.6093 134.192 64.0427 134.261 64.476C134.331 64.9093 134.478 65.2647 134.703 65.542C134.946 65.8193 135.31 65.958 135.795 65.958C136.298 65.958 136.662 65.8193 136.887 65.542C137.113 65.2647 137.251 64.9093 137.303 64.476C137.373 64.0427 137.407 63.6093 137.407 63.176V47.94H142.035V62.474C142.035 63.9473 141.845 65.1953 141.463 66.218C141.099 67.2233 140.467 67.9947 139.565 68.532C138.664 69.052 137.407 69.312 135.795 69.312ZM144.997 69V47.94H150.795C152.216 47.94 153.447 48.096 154.487 48.408C155.527 48.72 156.333 49.2833 156.905 50.098C157.494 50.8953 157.789 52.0307 157.789 53.504C157.789 54.3707 157.719 55.142 157.581 55.818C157.442 56.494 157.182 57.0833 156.801 57.586C156.437 58.0713 155.908 58.4787 155.215 58.808L158.101 69H153.291L150.977 59.562H149.651V69H144.997ZM149.651 56.884H150.951C151.609 56.884 152.121 56.7713 152.485 56.546C152.849 56.3033 153.1 55.9653 153.239 55.532C153.395 55.0813 153.473 54.544 153.473 53.92C153.473 53.0187 153.308 52.3167 152.979 51.814C152.649 51.3113 152.043 51.06 151.159 51.06H149.651V56.884ZM160.586 69V47.94H163.862L168.178 58.08V47.94H172.026V69H168.88L164.564 58.08V69H160.586ZM180.751 69.312C179.433 69.312 178.333 69.078 177.449 68.61C176.565 68.142 175.897 67.4227 175.447 66.452C174.996 65.464 174.745 64.19 174.693 62.63L178.671 62.032C178.688 62.9333 178.766 63.6613 178.905 64.216C179.061 64.7707 179.269 65.1693 179.529 65.412C179.806 65.6547 180.135 65.776 180.517 65.776C181.002 65.776 181.314 65.6113 181.453 65.282C181.609 64.9527 181.687 64.606 181.687 64.242C181.687 63.3753 181.479 62.6473 181.063 62.058C180.647 61.4513 180.083 60.8447 179.373 60.238L177.553 58.652C176.755 57.976 176.079 57.2133 175.525 56.364C174.987 55.4973 174.719 54.4313 174.719 53.166C174.719 51.3807 175.247 50.02 176.305 49.084C177.362 48.1307 178.801 47.654 180.621 47.654C181.747 47.654 182.649 47.8447 183.325 48.226C184.018 48.6073 184.538 49.11 184.885 49.734C185.249 50.3407 185.491 50.9907 185.613 51.684C185.751 52.36 185.829 53.01 185.847 53.634L181.843 54.128C181.825 53.504 181.782 52.9667 181.713 52.516C181.661 52.048 181.539 51.6927 181.349 51.45C181.158 51.19 180.863 51.06 180.465 51.06C180.031 51.06 179.711 51.242 179.503 51.606C179.312 51.97 179.217 52.334 179.217 52.698C179.217 53.478 179.399 54.1193 179.763 54.622C180.144 55.1073 180.638 55.6187 181.245 56.156L182.987 57.69C183.905 58.47 184.677 59.354 185.301 60.342C185.942 61.33 186.263 62.552 186.263 64.008C186.263 64.996 186.037 65.8973 185.587 66.712C185.136 67.5093 184.495 68.142 183.663 68.61C182.848 69.078 181.877 69.312 180.751 69.312ZM54.2885 156V134.94H63.3885V138.086H58.9425V143.39H62.8165V146.64H58.9425V156H54.2885ZM71.594 156.312C70.0166 156.312 68.7686 156.035 67.85 155.48C66.9313 154.925 66.2726 154.128 65.874 153.088C65.4753 152.048 65.276 150.809 65.276 149.37V141.544C65.276 140.088 65.4753 138.849 65.874 137.826C66.2726 136.803 66.9313 136.023 67.85 135.486C68.7686 134.931 70.0166 134.654 71.594 134.654C73.1886 134.654 74.4453 134.931 75.364 135.486C76.3 136.023 76.9673 136.803 77.366 137.826C77.7646 138.849 77.964 140.088 77.964 141.544V149.37C77.964 150.809 77.7646 152.048 77.366 153.088C76.9673 154.128 76.3 154.925 75.364 155.48C74.4453 156.035 73.1886 156.312 71.594 156.312ZM71.594 153.01C72.0793 153.01 72.4346 152.889 72.66 152.646C72.8853 152.403 73.0326 152.091 73.102 151.71C73.1713 151.329 73.206 150.939 73.206 150.54V140.4C73.206 139.984 73.1713 139.594 73.102 139.23C73.0326 138.849 72.8853 138.537 72.66 138.294C72.4346 138.051 72.0793 137.93 71.594 137.93C71.1433 137.93 70.8053 138.051 70.58 138.294C70.3546 138.537 70.2073 138.849 70.138 139.23C70.0686 139.594 70.034 139.984 70.034 140.4V150.54C70.034 150.939 70.06 151.329 70.112 151.71C70.1813 152.091 70.32 152.403 70.528 152.646C70.7533 152.889 71.1086 153.01 71.594 153.01ZM80.7963 156V134.94H86.5943C88.0157 134.94 89.2463 135.096 90.2863 135.408C91.3263 135.72 92.1323 136.283 92.7043 137.098C93.2937 137.895 93.5883 139.031 93.5883 140.504C93.5883 141.371 93.519 142.142 93.3803 142.818C93.2417 143.494 92.9817 144.083 92.6003 144.586C92.2363 145.071 91.7077 145.479 91.0143 145.808L93.9003 156H89.0903L86.7763 146.562H85.4503V156H80.7963ZM85.4503 143.884H86.7503C87.409 143.884 87.9203 143.771 88.2843 143.546C88.6483 143.303 88.8997 142.965 89.0383 142.532C89.1943 142.081 89.2723 141.544 89.2723 140.92C89.2723 140.019 89.1077 139.317 88.7783 138.814C88.449 138.311 87.8423 138.06 86.9583 138.06H85.4503V143.884ZM103.039 156V134.94H112.503V138.112H107.693V143.338H111.359V146.562H107.693V152.854H112.555V156H103.039ZM114.667 156V134.94H117.943L122.259 145.08V134.94H126.107V156H122.961L118.645 145.08V156H114.667ZM129.242 156V134.94H138.706V138.112H133.896V143.338H137.562V146.562H133.896V152.854H138.758V156H129.242ZM140.871 156V134.94H146.669C148.09 134.94 149.321 135.096 150.361 135.408C151.401 135.72 152.207 136.283 152.779 137.098C153.368 137.895 153.663 139.031 153.663 140.504C153.663 141.371 153.593 142.142 153.455 142.818C153.316 143.494 153.056 144.083 152.675 144.586C152.311 145.071 151.782 145.479 151.089 145.808L153.975 156H149.165L146.851 146.562H145.525V156H140.871ZM145.525 143.884H146.825C147.483 143.884 147.995 143.771 148.359 143.546C148.723 143.303 148.974 142.965 149.113 142.532C149.269 142.081 149.347 141.544 149.347 140.92C149.347 140.019 149.182 139.317 148.853 138.814C148.523 138.311 147.917 138.06 147.033 138.06H145.525V143.884ZM161.743 156.312C160.287 156.312 159.135 156.009 158.285 155.402C157.453 154.795 156.855 153.946 156.491 152.854C156.145 151.745 155.971 150.471 155.971 149.032V141.96C155.971 140.469 156.162 139.178 156.543 138.086C156.925 136.994 157.575 136.153 158.493 135.564C159.429 134.957 160.695 134.654 162.289 134.654C163.849 134.654 165.071 134.914 165.955 135.434C166.857 135.954 167.498 136.673 167.879 137.592C168.261 138.511 168.451 139.585 168.451 140.816V142.168H163.901V140.452C163.901 140.001 163.867 139.585 163.797 139.204C163.745 138.823 163.607 138.519 163.381 138.294C163.173 138.051 162.827 137.93 162.341 137.93C161.839 137.93 161.475 138.069 161.249 138.346C161.024 138.606 160.877 138.935 160.807 139.334C160.755 139.733 160.729 140.149 160.729 140.582V150.332C160.729 150.8 160.773 151.242 160.859 151.658C160.963 152.057 161.137 152.386 161.379 152.646C161.639 152.889 162.003 153.01 162.471 153.01C162.957 153.01 163.329 152.88 163.589 152.62C163.849 152.36 164.031 152.022 164.135 151.606C164.239 151.19 164.291 150.748 164.291 150.28V147.81H162.393V145.08H168.477V156H165.409L165.149 154.258C164.872 154.847 164.465 155.341 163.927 155.74C163.39 156.121 162.662 156.312 161.743 156.312ZM173.661 156V147.394L169.657 134.94H174.051L176.053 141.596L177.847 134.94H182.059L178.133 147.394V156H173.661Z" fill="white"></path>
    <path d="M63.9457 122.576C61.0017 122.576 58.6657 122.048 56.9377 120.992C55.2417 119.904 54.0417 118.4 53.3377 116.48C52.6337 114.528 52.2817 112.24 52.2817 109.616V95.6C52.2817 92.912 52.6337 90.608 53.3377 88.688C54.0417 86.736 55.2417 85.232 56.9377 84.176C58.6657 83.12 61.0017 82.592 63.9457 82.592C66.8257 82.592 69.0657 83.072 70.6657 84.032C72.2977 84.96 73.4497 86.272 74.1217 87.968C74.7937 89.664 75.1297 91.616 75.1297 93.824V97.184H66.7297V93.296C66.7297 92.528 66.6817 91.792 66.5857 91.088C66.5217 90.384 66.2977 89.808 65.9137 89.36C65.5297 88.88 64.8737 88.64 63.9457 88.64C63.0497 88.64 62.3777 88.88 61.9297 89.36C61.5137 89.84 61.2417 90.448 61.1137 91.184C61.0177 91.888 60.9697 92.64 60.9697 93.44V111.728C60.9697 112.592 61.0337 113.392 61.1617 114.128C61.3217 114.832 61.6097 115.408 62.0257 115.856C62.4737 116.272 63.1137 116.48 63.9457 116.48C64.8417 116.48 65.4817 116.256 65.8657 115.808C66.2497 115.328 66.4897 114.72 66.5857 113.984C66.6817 113.248 66.7297 112.496 66.7297 111.728V107.648H75.1297V111.008C75.1297 113.216 74.7937 115.2 74.1217 116.96C73.4817 118.688 72.3457 120.064 70.7137 121.088C69.1137 122.08 66.8577 122.576 63.9457 122.576ZM77.9846 122L85.3286 83.12H95.1206L102.369 122H94.4486L93.1526 113.792H87.4406L86.0966 122H77.9846ZM88.2086 108.656H92.3366L90.2726 93.488L88.2086 108.656ZM106.294 122V83.12H116.998C119.622 83.12 121.894 83.408 123.814 83.984C125.734 84.56 127.222 85.6 128.278 87.104C129.366 88.576 129.91 90.672 129.91 93.392C129.91 94.992 129.782 96.416 129.526 97.664C129.27 98.912 128.79 100 128.086 100.928C127.414 101.824 126.438 102.576 125.158 103.184L130.486 122H121.606L117.334 104.576H114.886V122H106.294ZM114.886 99.632H117.286C118.502 99.632 119.446 99.424 120.118 99.008C120.79 98.56 121.254 97.936 121.51 97.136C121.798 96.304 121.942 95.312 121.942 94.16C121.942 92.496 121.638 91.2 121.03 90.272C120.422 89.344 119.302 88.88 117.67 88.88H114.886V99.632ZM135.075 122V83.12H145.203C146.867 83.12 148.435 83.248 149.907 83.504C151.411 83.76 152.739 84.256 153.891 84.992C155.043 85.696 155.939 86.72 156.579 88.064C157.251 89.376 157.587 91.12 157.587 93.296C157.587 94.864 157.347 96.192 156.867 97.28C156.419 98.336 155.763 99.184 154.899 99.824C154.067 100.464 153.059 100.896 151.875 101.12C153.379 101.312 154.643 101.808 155.667 102.608C156.691 103.376 157.459 104.416 157.971 105.728C158.515 107.04 158.787 108.624 158.787 110.48C158.787 112.496 158.515 114.24 157.971 115.712C157.459 117.152 156.707 118.336 155.715 119.264C154.723 120.192 153.491 120.88 152.019 121.328C150.579 121.776 148.915 122 147.027 122H135.075ZM143.667 116H145.491C147.379 116 148.675 115.52 149.379 114.56C150.115 113.6 150.483 112.192 150.483 110.336C150.483 108.864 150.323 107.696 150.003 106.832C149.683 105.968 149.155 105.344 148.419 104.96C147.683 104.544 146.691 104.336 145.443 104.336H143.667V116ZM143.667 98.672H145.347C146.659 98.672 147.651 98.48 148.323 98.096C148.995 97.68 149.443 97.088 149.667 96.32C149.923 95.552 150.051 94.624 150.051 93.536C150.051 92.512 149.859 91.664 149.475 90.992C149.123 90.288 148.579 89.76 147.843 89.408C147.139 89.056 146.243 88.88 145.155 88.88H143.667V98.672ZM173.614 122.576C171.182 122.576 169.15 122.144 167.518 121.28C165.886 120.416 164.654 119.088 163.822 117.296C162.99 115.472 162.526 113.12 162.43 110.24L169.774 109.136C169.806 110.8 169.95 112.144 170.206 113.168C170.494 114.192 170.878 114.928 171.358 115.376C171.87 115.824 172.478 116.048 173.182 116.048C174.078 116.048 174.654 115.744 174.91 115.136C175.198 114.528 175.342 113.888 175.342 113.216C175.342 111.616 174.958 110.272 174.19 109.184C173.422 108.064 172.382 106.944 171.07 105.824L167.71 102.896C166.238 101.648 164.99 100.24 163.966 98.672C162.974 97.072 162.478 95.104 162.478 92.768C162.478 89.472 163.454 86.96 165.406 85.232C167.358 83.472 170.014 82.592 173.374 82.592C175.454 82.592 177.118 82.944 178.366 83.648C179.646 84.352 180.606 85.28 181.246 86.432C181.918 87.552 182.366 88.752 182.59 90.032C182.846 91.28 182.99 92.48 183.022 93.632L175.63 94.544C175.598 93.392 175.518 92.4 175.39 91.568C175.294 90.704 175.07 90.048 174.718 89.6C174.366 89.12 173.822 88.88 173.086 88.88C172.286 88.88 171.694 89.216 171.31 89.888C170.958 90.56 170.782 91.232 170.782 91.904C170.782 93.344 171.118 94.528 171.79 95.456C172.494 96.352 173.406 97.296 174.526 98.288L177.742 101.12C179.438 102.56 180.862 104.192 182.014 106.016C183.198 107.84 183.79 110.096 183.79 112.784C183.79 114.608 183.374 116.272 182.542 117.776C181.71 119.248 180.526 120.416 178.99 121.28C177.486 122.144 175.694 122.576 173.614 122.576Z" fill="#FFD600"></path>
    <defs>
      <linearGradient id="paint0_linear_404_2481" x1="117" y1="-1.33987e-10" x2="117.5" y2="194" gradientUnits="userSpaceOnUse">
        <stop stop-color="#1281FC" stop-opacity="0"></stop>
        <stop offset="0.865295" stop-color="#1281FC"></stop>
      </linearGradient>
    </defs>
  </symbol>

  <symbol fill="none" xmlns="http://www.w3.org/2000/svg" viewBox="0 0 140 140" id="vs">
    <path d="M70 140C108.66 140 140 108.66 140 70C140 31.3401 108.66 0 70 0C31.3401 0 0 31.3401 0 70C0 108.66 31.3401 140 70 140Z" fill="#F69C24"></path>
    <path d="M70 136C106.451 136 136 106.451 136 70C136 33.5492 106.451 4 70 4C33.5492 4 4 33.5492 4 70C4 106.451 33.5492 136 70 136Z" stroke="white" stroke-width="0.2"></path>
    <path d="M70 132C104.242 132 132 104.242 132 70C132 35.7583 104.242 8 70 8C35.7583 8 8 35.7583 8 70C8 104.242 35.7583 132 70 132Z" stroke="white" stroke-width="0.2"></path>
    <path d="M70 128C102.033 128 128 102.033 128 70C128 37.9675 102.033 12 70 12C37.9675 12 12 37.9675 12 70C12 102.033 37.9675 128 70 128Z" stroke="white" stroke-width="0.2"></path>
    <path d="M70 124C99.8234 124 124 99.8234 124 70C124 40.1766 99.8234 16 70 16C40.1766 16 16 40.1766 16 70C16 99.8234 40.1766 124 70 124Z" stroke="white" stroke-width="0.2"></path>
    <path d="M56.2942 78.1022L63.4507 54.3556H70.694L59.699 85.931H52.9111L41.9595 54.3556H49.1811L56.2942 78.1022ZM90.06 77.6468C90.06 76.4178 89.6262 75.4781 88.7588 74.8275C87.8913 74.1625 86.3299 73.4685 84.0745 72.7457C81.8191 72.0083 80.0336 71.2854 78.718 70.5771C75.1325 68.6396 73.3397 66.03 73.3397 62.7483C73.3397 61.0422 73.8168 59.5242 74.771 58.1941C75.7397 56.8495 77.1204 55.8014 78.9131 55.0495C80.7204 54.2978 82.7444 53.9219 84.9853 53.9219C87.2407 53.9219 89.2503 54.3339 91.0141 55.1579C92.778 55.9676 94.1442 57.117 95.1129 58.6061C96.096 60.0952 96.5875 61.7868 96.5875 63.6807H90.0816C90.0816 62.235 89.6262 61.1145 88.7154 60.3193C87.8045 59.5097 86.525 59.1049 84.8769 59.1049C83.2866 59.1049 82.0504 59.4446 81.1685 60.1242C80.2866 60.7892 79.8457 61.6711 79.8457 62.7699C79.8457 63.7964 80.3589 64.6566 81.3854 65.3506C82.4263 66.0445 83.9516 66.6951 85.9612 67.3024C89.6624 68.4155 92.3587 69.7963 94.0503 71.4445C95.7418 73.0926 96.5875 75.1456 96.5875 77.6034C96.5875 80.3359 95.5539 82.4828 93.4864 84.0443C91.419 85.5912 88.6359 86.3647 85.1371 86.3647C82.7083 86.3647 80.4963 85.9238 78.5011 85.0418C76.506 84.1455 74.9806 82.9238 73.9252 81.3768C72.8843 79.8299 72.3638 78.0371 72.3638 75.9986H78.8915C78.8915 79.4829 80.9733 81.2251 85.1371 81.2251C86.6841 81.2251 87.8913 80.9142 88.7588 80.2926C89.6262 79.6564 90.06 78.7745 90.06 77.6468Z" fill="white"></path>
  </symbol>

</svg>


