<svg width="140" height="140" viewBox="0 0 140 140" fill="none" xmlns="http://www.w3.org/2000/svg">
<path d="M70 140C108.66 140 140 108.66 140 70C140 31.3401 108.66 0 70 0C31.3401 0 0 31.3401 0 70C0 108.66 31.3401 140 70 140Z" fill="#F69C24"/>
<path d="M70 136C106.451 136 136 106.451 136 70C136 33.5492 106.451 4 70 4C33.5492 4 4 33.5492 4 70C4 106.451 33.5492 136 70 136Z" stroke="white" stroke-width="0.2"/>
<path d="M70 132C104.242 132 132 104.242 132 70C132 35.7583 104.242 8 70 8C35.7583 8 8 35.7583 8 70C8 104.242 35.7583 132 70 132Z" stroke="white" stroke-width="0.2"/>
<path d="M70 128C102.033 128 128 102.033 128 70C128 37.9675 102.033 12 70 12C37.9675 12 12 37.9675 12 70C12 102.033 37.9675 128 70 128Z" stroke="white" stroke-width="0.2"/>
<path d="M70 124C99.8234 124 124 99.8234 124 70C124 40.1766 99.8234 16 70 16C40.1766 16 16 40.1766 16 70C16 99.8234 40.1766 124 70 124Z" stroke="white" stroke-width="0.2"/>
<path d="M56.2942 78.1022L63.4507 54.3556H70.694L59.699 85.931H52.9111L41.9595 54.3556H49.1811L56.2942 78.1022ZM90.06 77.6468C90.06 76.4178 89.6262 75.4781 88.7588 74.8275C87.8913 74.1625 86.3299 73.4685 84.0745 72.7457C81.8191 72.0083 80.0336 71.2854 78.718 70.5771C75.1325 68.6396 73.3397 66.03 73.3397 62.7483C73.3397 61.0422 73.8168 59.5242 74.771 58.1941C75.7397 56.8495 77.1204 55.8014 78.9131 55.0495C80.7204 54.2978 82.7444 53.9219 84.9853 53.9219C87.2407 53.9219 89.2503 54.3339 91.0141 55.1579C92.778 55.9676 94.1442 57.117 95.1129 58.6061C96.096 60.0952 96.5875 61.7868 96.5875 63.6807H90.0816C90.0816 62.235 89.6262 61.1145 88.7154 60.3193C87.8045 59.5097 86.525 59.1049 84.8769 59.1049C83.2866 59.1049 82.0504 59.4446 81.1685 60.1242C80.2866 60.7892 79.8457 61.6711 79.8457 62.7699C79.8457 63.7964 80.3589 64.6566 81.3854 65.3506C82.4263 66.0445 83.9516 66.6951 85.9612 67.3024C89.6624 68.4155 92.3587 69.7963 94.0503 71.4445C95.7418 73.0926 96.5875 75.1456 96.5875 77.6034C96.5875 80.3359 95.5539 82.4828 93.4864 84.0443C91.419 85.5912 88.6359 86.3647 85.1371 86.3647C82.7083 86.3647 80.4963 85.9238 78.5011 85.0418C76.506 84.1455 74.9806 82.9238 73.9252 81.3768C72.8843 79.8299 72.3638 78.0371 72.3638 75.9986H78.8915C78.8915 79.4829 80.9733 81.2251 85.1371 81.2251C86.6841 81.2251 87.8913 80.9142 88.7588 80.2926C89.6262 79.6564 90.06 78.7745 90.06 77.6468Z" fill="white"/>
</svg>
