<svg width="0" height="0" class="hidden">
  <symbol fill="none" xmlns="http://www.w3.org/2000/svg" viewBox="0 0 258 62" id="website-secure">
    <g clip-path="url(#clip0_404_2881)">
      <path d="M28.5276 59.6803C27.9415 59.9673 27.46 60.194 27.115 60.3533C26.7699 60.194 26.2884 59.9673 25.7023 59.6803C24.4483 59.066 22.7211 58.178 20.8308 57.0842C17.0035 54.8696 12.686 51.9116 10.18 48.7709C7.48863 45.3979 5.74867 42.4235 4.55787 39.2407C3.36274 36.0463 2.69538 32.5751 2.22128 28.1668C1.97412 25.8686 1.97081 22.3489 2.03553 19.34C2.0676 17.8492 2.11572 16.5065 2.15585 15.5365C2.16507 15.3135 2.17387 15.1103 2.18195 14.9297C2.37352 14.8522 2.59225 14.7635 2.83475 14.6647C3.79535 14.2734 5.13007 13.7231 6.62709 13.0875C9.60827 11.8217 13.2794 10.1976 15.9148 8.80951C18.5562 7.41833 21.5794 5.51571 23.9211 3.97699C25.0967 3.20454 26.1097 2.51776 26.8292 2.0238C26.9303 1.95435 27.0257 1.8887 27.115 1.82715C27.2042 1.8887 27.2996 1.95435 27.4007 2.0238C28.1203 2.51776 29.1332 3.20454 30.3088 3.97699C32.6506 5.51571 35.6737 7.41833 38.3151 8.80951C40.9506 10.1976 44.6215 11.8217 47.6027 13.0875C49.0997 13.7231 50.4345 14.2734 51.3951 14.6647C51.6176 14.7554 51.8201 14.8375 52 14.9103V28.3272C52 32.6585 51.3421 36.0707 50.0498 39.217C48.7501 42.3814 46.7793 45.3502 44.0498 48.7709C41.5439 51.9116 37.2264 54.8696 33.3991 57.0842C31.5088 58.178 29.7817 59.066 28.5276 59.6803Z" stroke="#5E5E5F" stroke-width="3"></path>
      <path d="M69.6855 11.7002H72.5055L75.1155 29.1602L78.3855 11.7902H80.7855L84.0855 29.2502L86.6355 11.7002H89.3955L85.4955 36.0002H83.0355L79.6455 18.0002L76.2255 36.0002H73.6455L69.6855 11.7002ZM92.3509 11.7002H101.771V14.2202H95.7409V22.2602H100.631V24.6602H95.7409V33.5702H101.831V36.0002H92.3509V11.7002ZM104.568 11.7002H110.148C112.348 11.7002 113.978 12.2002 115.038 13.2002C116.098 14.1802 116.628 15.7102 116.628 17.7902C116.628 20.8902 115.468 22.6002 113.148 22.9202C114.588 23.2602 115.638 23.9402 116.298 24.9602C116.958 25.9602 117.288 27.3302 117.288 29.0702C117.288 31.2502 116.768 32.9502 115.728 34.1702C114.708 35.3902 113.148 36.0002 111.048 36.0002H104.568V11.7002ZM109.968 21.8402C111.368 21.8402 112.338 21.5402 112.878 20.9402C113.418 20.3202 113.688 19.2702 113.688 17.7902C113.688 16.7102 113.518 15.9202 113.178 15.4202C112.858 14.9002 112.368 14.5702 111.708 14.4302C111.048 14.2902 110.068 14.2202 108.768 14.2202H107.958V21.8402H109.968ZM110.238 33.5702C111.238 33.5702 112.008 33.4202 112.548 33.1202C113.108 32.8002 113.498 32.3202 113.718 31.6802C113.938 31.0402 114.048 30.1702 114.048 29.0702C114.048 27.5102 113.728 26.3502 113.088 25.5902C112.448 24.8102 111.408 24.4202 109.968 24.4202H107.958V33.5702H110.238ZM126.03 36.2702C123.99 36.2702 122.43 35.6402 121.35 34.3802C120.29 33.1202 119.7 31.3902 119.58 29.1902L122.58 28.3802C122.68 29.9402 122.98 31.2002 123.48 32.1602C124 33.1202 124.85 33.6002 126.03 33.6002C126.91 33.6002 127.57 33.3602 128.01 32.8802C128.47 32.3802 128.7 31.6702 128.7 30.7502C128.7 29.7502 128.49 28.9202 128.07 28.2602C127.65 27.6002 126.98 26.8702 126.06 26.0702L121.98 22.4702C121.16 21.7502 120.56 20.9802 120.18 20.1602C119.82 19.3202 119.64 18.3002 119.64 17.1002C119.64 15.3202 120.15 13.9402 121.17 12.9602C122.19 11.9802 123.58 11.4902 125.34 11.4902C127.26 11.4902 128.71 12.0002 129.69 13.0202C130.67 14.0402 131.26 15.6202 131.46 17.7602L128.58 18.5402C128.48 17.1202 128.2 16.0302 127.74 15.2702C127.3 14.4902 126.5 14.1002 125.34 14.1002C124.48 14.1002 123.82 14.3302 123.36 14.7902C122.9 15.2302 122.67 15.8902 122.67 16.7702C122.67 17.4902 122.79 18.1002 123.03 18.6002C123.27 19.0802 123.68 19.5702 124.26 20.0702L128.37 23.6702C129.43 24.6102 130.27 25.6302 130.89 26.7302C131.53 27.8302 131.85 29.0802 131.85 30.4802C131.85 32.2602 131.31 33.6702 130.23 34.7102C129.15 35.7502 127.75 36.2702 126.03 36.2702ZM134.66 11.7002H137.99V36.0002H134.66V11.7002ZM144.591 14.2202H140.481V11.7002H151.971V14.2202H147.981V36.0002H144.591V14.2202ZM154.314 11.7002H163.734V14.2202H157.704V22.2602H162.594V24.6602H157.704V33.5702H163.794V36.0002H154.314V11.7002ZM179.116 36.2702C177.076 36.2702 175.516 35.6402 174.436 34.3802C173.376 33.1202 172.786 31.3902 172.666 29.1902L175.666 28.3802C175.766 29.9402 176.066 31.2002 176.566 32.1602C177.086 33.1202 177.936 33.6002 179.116 33.6002C179.996 33.6002 180.656 33.3602 181.096 32.8802C181.556 32.3802 181.786 31.6702 181.786 30.7502C181.786 29.7502 181.576 28.9202 181.156 28.2602C180.736 27.6002 180.066 26.8702 179.146 26.0702L175.066 22.4702C174.246 21.7502 173.646 20.9802 173.266 20.1602C172.906 19.3202 172.726 18.3002 172.726 17.1002C172.726 15.3202 173.236 13.9402 174.256 12.9602C175.276 11.9802 176.666 11.4902 178.426 11.4902C180.346 11.4902 181.796 12.0002 182.776 13.0202C183.756 14.0402 184.346 15.6202 184.546 17.7602L181.666 18.5402C181.566 17.1202 181.286 16.0302 180.826 15.2702C180.386 14.4902 179.586 14.1002 178.426 14.1002C177.566 14.1002 176.906 14.3302 176.446 14.7902C175.986 15.2302 175.756 15.8902 175.756 16.7702C175.756 17.4902 175.876 18.1002 176.116 18.6002C176.356 19.0802 176.766 19.5702 177.346 20.0702L181.456 23.6702C182.516 24.6102 183.356 25.6302 183.976 26.7302C184.616 27.8302 184.936 29.0802 184.936 30.4802C184.936 32.2602 184.396 33.6702 183.316 34.7102C182.236 35.7502 180.836 36.2702 179.116 36.2702ZM187.566 11.7002H196.986V14.2202H190.956V22.2602H195.846V24.6602H190.956V33.5702H197.046V36.0002H187.566V11.7002ZM205.873 36.2702C203.473 36.2702 201.783 35.5602 200.803 34.1402C199.823 32.7002 199.333 30.7202 199.333 28.2002V19.6202C199.333 16.9602 199.813 14.9402 200.773 13.5602C201.733 12.1802 203.433 11.4902 205.873 11.4902C208.053 11.4902 209.613 12.0802 210.553 13.2602C211.513 14.4402 211.993 16.1802 211.993 18.4802V20.4002H208.783V18.6902C208.783 17.5702 208.733 16.7102 208.633 16.1102C208.533 15.5102 208.273 15.0302 207.853 14.6702C207.453 14.3102 206.803 14.1302 205.903 14.1302C204.983 14.1302 204.293 14.3302 203.833 14.7302C203.393 15.1102 203.103 15.6502 202.963 16.3502C202.823 17.0302 202.753 17.9502 202.753 19.1102V28.7402C202.753 29.9802 202.853 30.9502 203.053 31.6502C203.253 32.3502 203.573 32.8502 204.013 33.1502C204.473 33.4502 205.103 33.6002 205.903 33.6002C206.763 33.6002 207.403 33.4102 207.823 33.0302C208.243 32.6502 208.503 32.1302 208.603 31.4702C208.723 30.8102 208.783 29.9102 208.783 28.7702V26.9702H211.993V28.7702C211.993 31.1902 211.533 33.0502 210.613 34.3502C209.713 35.6302 208.133 36.2702 205.873 36.2702ZM221.492 36.2702C219.792 36.2702 218.462 35.9302 217.502 35.2502C216.562 34.5702 215.912 33.6202 215.552 32.4002C215.192 31.1802 215.012 29.6502 215.012 27.8102V11.7002H218.252V27.9602C218.252 29.8002 218.462 31.2002 218.882 32.1602C219.322 33.1202 220.192 33.6002 221.492 33.6002C222.792 33.6002 223.652 33.1202 224.072 32.1602C224.512 31.2002 224.732 29.8002 224.732 27.9602V11.7002H227.942V27.8102C227.942 29.6502 227.762 31.1802 227.402 32.4002C227.042 33.6202 226.392 34.5702 225.452 35.2502C224.512 35.9302 223.192 36.2702 221.492 36.2702ZM231.511 11.7002H236.401C238.861 11.7002 240.661 12.2102 241.801 13.2302C242.961 14.2302 243.541 15.8702 243.541 18.1502C243.541 21.2702 242.541 23.1602 240.541 23.8202L243.991 36.0002H240.721L237.541 24.6002H234.901V36.0002H231.511V11.7002ZM236.191 22.1702C237.651 22.1702 238.691 21.8802 239.311 21.3002C239.951 20.7202 240.271 19.6702 240.271 18.1502C240.271 17.1502 240.161 16.3702 239.941 15.8102C239.721 15.2302 239.331 14.8102 238.771 14.5502C238.211 14.2702 237.421 14.1302 236.401 14.1302H234.901V22.1702H236.191ZM247.068 11.7002H256.488V14.2202H250.458V22.2602H255.348V24.6602H250.458V33.5702H256.548V36.0002H247.068V11.7002Z" fill="#5E5E5F"></path>
      <path d="M72.874 57.1804C71.734 57.1804 70.864 56.8324 70.264 56.1364C69.664 55.4284 69.322 54.4564 69.238 53.2204L70.444 52.8604C70.552 53.8924 70.78 54.6844 71.128 55.2364C71.488 55.7884 72.076 56.0644 72.892 56.0644C74.26 56.0644 74.944 55.3624 74.944 53.9584C74.944 53.3584 74.8 52.8304 74.512 52.3744C74.236 51.9184 73.786 51.3964 73.162 50.8084L70.588 48.3424C70.12 47.9104 69.778 47.4604 69.562 46.9924C69.358 46.5124 69.256 45.9844 69.256 45.4084C69.256 44.4124 69.55 43.6444 70.138 43.1044C70.738 42.5524 71.542 42.2764 72.55 42.2764C73.63 42.2764 74.458 42.5644 75.034 43.1404C75.61 43.7164 75.946 44.6584 76.042 45.9664L74.872 46.2724C74.8 45.2884 74.59 44.5564 74.242 44.0764C73.906 43.5964 73.342 43.3564 72.55 43.3564C71.926 43.3564 71.428 43.5184 71.056 43.8424C70.684 44.1664 70.498 44.6464 70.498 45.2824C70.498 45.6904 70.576 46.0564 70.732 46.3804C70.888 46.7044 71.152 47.0464 71.524 47.4064L74.098 49.8364C74.758 50.4604 75.274 51.1024 75.646 51.7624C76.03 52.4104 76.222 53.1124 76.222 53.8684C76.222 54.9244 75.916 55.7404 75.304 56.3164C74.692 56.8924 73.882 57.1804 72.874 57.1804ZM80.3973 57.1624C79.7253 57.1624 79.1853 57.0304 78.7773 56.7664C78.3693 56.5024 78.0693 56.0764 77.8773 55.4884C77.6853 54.9004 77.5893 54.1024 77.5893 53.0944V50.4664C77.5893 49.4464 77.6853 48.6484 77.8773 48.0724C78.0813 47.4844 78.3873 47.0644 78.7953 46.8124C79.2153 46.5604 79.7553 46.4344 80.4153 46.4344C81.1353 46.4344 81.6873 46.5904 82.0713 46.9024C82.4673 47.2024 82.7373 47.6584 82.8813 48.2704C83.0373 48.8824 83.1153 49.7044 83.1153 50.7364V51.6724H78.9033V53.4904C78.9033 54.4864 79.0173 55.1824 79.2453 55.5784C79.4733 55.9744 79.8573 56.1724 80.3973 56.1724C80.8533 56.1724 81.2013 56.0284 81.4413 55.7404C81.6933 55.4524 81.8193 54.9304 81.8193 54.1744V53.4544H83.0973V54.0304C83.0973 55.0384 82.8873 55.8124 82.4673 56.3524C82.0473 56.8924 81.3573 57.1624 80.3973 57.1624ZM81.8193 50.9164V50.0524C81.8193 49.4284 81.7833 48.9364 81.7113 48.5764C81.6513 48.2164 81.5193 47.9344 81.3153 47.7304C81.1113 47.5264 80.8053 47.4244 80.3973 47.4244C80.0253 47.4244 79.7313 47.5084 79.5153 47.6764C79.2993 47.8324 79.1433 48.1144 79.0473 48.5224C78.9513 48.9184 78.9033 49.4824 78.9033 50.2144V50.9164H81.8193ZM87.4809 57.1624C86.7129 57.1624 86.1249 56.9944 85.7169 56.6584C85.3089 56.3104 85.0329 55.8484 84.8889 55.2724C84.7569 54.6844 84.6909 53.9464 84.6909 53.0584V50.6284C84.6909 49.6204 84.7689 48.8164 84.9249 48.2164C85.0929 47.6164 85.3749 47.1724 85.7709 46.8844C86.1789 46.5844 86.7489 46.4344 87.4809 46.4344C88.5009 46.4344 89.1969 46.7164 89.5689 47.2804C89.9409 47.8324 90.1269 48.6604 90.1269 49.7644V50.2684H88.9029V49.7644C88.9029 49.1524 88.8549 48.6784 88.7589 48.3424C88.6749 48.0064 88.5309 47.7724 88.3269 47.6404C88.1229 47.4964 87.8409 47.4244 87.4809 47.4244C87.0729 47.4244 86.7609 47.5204 86.5449 47.7124C86.3409 47.9044 86.1969 48.2104 86.1129 48.6304C86.0409 49.0384 86.0049 49.6324 86.0049 50.4124V53.3284C86.0049 54.0484 86.0469 54.6124 86.1309 55.0204C86.2149 55.4284 86.3649 55.7224 86.5809 55.9024C86.7969 56.0824 87.1029 56.1724 87.4989 56.1724C87.9069 56.1724 88.2069 56.0884 88.3989 55.9204C88.6029 55.7404 88.7349 55.4764 88.7949 55.1284C88.8669 54.7804 88.9029 54.2944 88.9029 53.6704V53.0944H90.1269V53.5984C90.1269 54.3784 90.0549 55.0264 89.9109 55.5424C89.7789 56.0464 89.5209 56.4424 89.1369 56.7304C88.7529 57.0184 88.2009 57.1624 87.4809 57.1624ZM93.415 57.1624C92.887 57.1624 92.485 56.9704 92.209 56.5864C91.933 56.2024 91.795 55.6564 91.795 54.9484V46.5964H93.127V54.6604C93.127 55.1884 93.205 55.5664 93.361 55.7944C93.529 56.0104 93.781 56.1184 94.117 56.1184C94.417 56.1184 94.723 56.0284 95.035 55.8484C95.359 55.6564 95.665 55.4044 95.953 55.0924V46.5964H97.267V57.0004H95.953V55.8484C95.605 56.2564 95.215 56.5804 94.783 56.8204C94.351 57.0484 93.895 57.1624 93.415 57.1624ZM99.3929 46.5964H100.725V48.0184C101.037 47.5024 101.403 47.1184 101.823 46.8664C102.255 46.6144 102.687 46.4884 103.119 46.4884C103.203 46.4884 103.281 46.4944 103.353 46.5064V47.9104C103.137 47.8384 102.921 47.8024 102.705 47.8024C101.877 47.8024 101.217 48.2044 100.725 49.0084V57.0004H99.3929V46.5964ZM107.204 57.1624C106.532 57.1624 105.992 57.0304 105.584 56.7664C105.176 56.5024 104.876 56.0764 104.684 55.4884C104.492 54.9004 104.396 54.1024 104.396 53.0944V50.4664C104.396 49.4464 104.492 48.6484 104.684 48.0724C104.888 47.4844 105.194 47.0644 105.602 46.8124C106.022 46.5604 106.562 46.4344 107.222 46.4344C107.942 46.4344 108.494 46.5904 108.878 46.9024C109.274 47.2024 109.544 47.6584 109.688 48.2704C109.844 48.8824 109.922 49.7044 109.922 50.7364V51.6724H105.71V53.4904C105.71 54.4864 105.824 55.1824 106.052 55.5784C106.28 55.9744 106.664 56.1724 107.204 56.1724C107.66 56.1724 108.008 56.0284 108.248 55.7404C108.5 55.4524 108.626 54.9304 108.626 54.1744V53.4544H109.904V54.0304C109.904 55.0384 109.694 55.8124 109.274 56.3524C108.854 56.8924 108.164 57.1624 107.204 57.1624ZM108.626 50.9164V50.0524C108.626 49.4284 108.59 48.9364 108.518 48.5764C108.458 48.2164 108.326 47.9344 108.122 47.7304C107.918 47.5264 107.612 47.4244 107.204 47.4244C106.832 47.4244 106.538 47.5084 106.322 47.6764C106.106 47.8324 105.95 48.1144 105.854 48.5224C105.758 48.9184 105.71 49.4824 105.71 50.2144V50.9164H108.626ZM115.243 56.0284L119.167 50.0164C119.215 49.9444 119.257 49.8784 119.293 49.8184C119.341 49.7584 119.377 49.7104 119.401 49.6744C119.893 48.9064 120.253 48.2584 120.481 47.7304C120.721 47.2024 120.841 46.5844 120.841 45.8764C120.841 45.0844 120.679 44.4724 120.355 44.0404C120.031 43.5964 119.545 43.3744 118.897 43.3744C118.057 43.3744 117.475 43.6444 117.151 44.1844C116.827 44.7124 116.665 45.4564 116.665 46.4164V46.7404H115.351V46.3804C115.351 45.0124 115.627 43.9864 116.179 43.3024C116.743 42.6184 117.631 42.2764 118.843 42.2764C119.923 42.2764 120.745 42.6004 121.309 43.2484C121.873 43.8844 122.155 44.7964 122.155 45.9844C122.155 46.5364 122.077 47.0584 121.921 47.5504C121.765 48.0424 121.573 48.4864 121.345 48.8824C121.129 49.2664 120.823 49.7644 120.427 50.3764L116.791 55.8844H121.849V57.0004H115.243V56.0284ZM127.436 57.1624C126.296 57.1624 125.468 56.8384 124.952 56.1904C124.448 55.5304 124.196 54.5464 124.196 53.2384H125.51C125.51 54.1864 125.654 54.9004 125.942 55.3804C126.242 55.8604 126.758 56.1004 127.49 56.1004C128.282 56.1004 128.816 55.8124 129.092 55.2364C129.368 54.6484 129.506 53.7004 129.506 52.3924C129.506 51.4924 129.44 50.7844 129.308 50.2684C129.188 49.7404 128.978 49.3624 128.678 49.1344C128.39 48.8944 128 48.7744 127.508 48.7744C126.728 48.7744 126.098 49.1764 125.618 49.9804H124.52V42.4204H130.19L130.172 43.6624H125.69L125.618 48.7204C126.134 48.0724 126.878 47.7484 127.85 47.7484C128.894 47.7484 129.65 48.1324 130.118 48.9004C130.586 49.6564 130.82 50.7664 130.82 52.2304C130.82 53.8624 130.556 55.0924 130.028 55.9204C129.5 56.7484 128.636 57.1624 127.436 57.1624ZM136.23 57.1804C133.986 57.1804 132.864 55.6564 132.864 52.6084V46.7944C132.864 43.7824 133.98 42.2764 136.212 42.2764C138.372 42.2764 139.464 43.3984 139.488 45.6424L139.506 45.9484H138.192C138.192 45.0124 138.042 44.3464 137.742 43.9504C137.454 43.5544 136.962 43.3564 136.266 43.3564C134.874 43.3564 134.178 44.4004 134.178 46.4884V49.2424C134.43 49.0144 134.76 48.8164 135.168 48.6484C135.588 48.4804 136.038 48.3964 136.518 48.3964C137.31 48.3964 137.934 48.5464 138.39 48.8464C138.846 49.1464 139.17 49.6144 139.362 50.2504C139.566 50.8744 139.668 51.7024 139.668 52.7344C139.668 55.6984 138.522 57.1804 136.23 57.1804ZM136.23 56.0824C136.95 56.0824 137.478 55.8364 137.814 55.3444C138.162 54.8524 138.336 54.0664 138.336 52.9864C138.336 52.0984 138.288 51.4084 138.192 50.9164C138.096 50.4244 137.898 50.0524 137.598 49.8004C137.298 49.5484 136.842 49.4224 136.23 49.4224C135.846 49.4224 135.462 49.5124 135.078 49.6924C134.694 49.8604 134.394 50.0464 134.178 50.2504V52.7704C134.178 53.9344 134.34 54.7804 134.664 55.3084C135 55.8244 135.522 56.0824 136.23 56.0824ZM141.432 50.6104H145.248V51.6544H141.432V50.6104ZM150.196 57.1624C149.524 57.1624 148.906 56.8324 148.342 56.1724V57.0004H147.028V42.4204H148.342V47.4604C148.57 47.1604 148.852 46.9144 149.188 46.7224C149.524 46.5304 149.902 46.4344 150.322 46.4344C151.234 46.4344 151.858 46.8124 152.194 47.5684C152.53 48.3244 152.698 49.3264 152.698 50.5744V52.7704C152.698 54.1984 152.512 55.2904 152.14 56.0464C151.768 56.7904 151.12 57.1624 150.196 57.1624ZM149.962 56.1184C150.526 56.1184 150.898 55.8604 151.078 55.3444C151.27 54.8284 151.366 53.9824 151.366 52.8064V50.5744C151.366 49.4584 151.27 48.6604 151.078 48.1804C150.898 47.7004 150.52 47.4604 149.944 47.4604C149.416 47.4604 148.882 47.7304 148.342 48.2704V55.3624C148.798 55.8664 149.338 56.1184 149.962 56.1184ZM154.642 43.3744H155.956V45.1564H154.642V43.3744ZM154.642 46.5964H155.956V57.0004H154.642V46.5964ZM160.638 57.1264C159.93 57.1264 159.438 56.9344 159.162 56.5504C158.898 56.1544 158.766 55.5844 158.766 54.8404V47.4604H157.488V46.5964H158.766V43.3744H160.08V46.5964H161.808V47.4604H160.08V54.7144C160.08 55.2424 160.14 55.6084 160.26 55.8124C160.38 56.0044 160.626 56.1004 160.998 56.1004C161.226 56.1004 161.478 56.0704 161.754 56.0104V57.0184C161.382 57.0904 161.01 57.1264 160.638 57.1264ZM170.257 57.1804C169.117 57.1804 168.247 56.8324 167.647 56.1364C167.047 55.4284 166.705 54.4564 166.621 53.2204L167.827 52.8604C167.935 53.8924 168.163 54.6844 168.511 55.2364C168.871 55.7884 169.459 56.0644 170.275 56.0644C171.643 56.0644 172.327 55.3624 172.327 53.9584C172.327 53.3584 172.183 52.8304 171.895 52.3744C171.619 51.9184 171.169 51.3964 170.545 50.8084L167.971 48.3424C167.503 47.9104 167.161 47.4604 166.945 46.9924C166.741 46.5124 166.639 45.9844 166.639 45.4084C166.639 44.4124 166.933 43.6444 167.521 43.1044C168.121 42.5524 168.925 42.2764 169.933 42.2764C171.013 42.2764 171.841 42.5644 172.417 43.1404C172.993 43.7164 173.329 44.6584 173.425 45.9664L172.255 46.2724C172.183 45.2884 171.973 44.5564 171.625 44.0764C171.289 43.5964 170.725 43.3564 169.933 43.3564C169.309 43.3564 168.811 43.5184 168.439 43.8424C168.067 44.1664 167.881 44.6464 167.881 45.2824C167.881 45.6904 167.959 46.0564 168.115 46.3804C168.271 46.7044 168.535 47.0464 168.907 47.4064L171.481 49.8364C172.141 50.4604 172.657 51.1024 173.029 51.7624C173.413 52.4104 173.605 53.1124 173.605 53.8684C173.605 54.9244 173.299 55.7404 172.687 56.3164C172.075 56.8924 171.265 57.1804 170.257 57.1804ZM178.536 57.1804C177.396 57.1804 176.526 56.8324 175.926 56.1364C175.326 55.4284 174.984 54.4564 174.9 53.2204L176.106 52.8604C176.214 53.8924 176.442 54.6844 176.79 55.2364C177.15 55.7884 177.738 56.0644 178.554 56.0644C179.922 56.0644 180.606 55.3624 180.606 53.9584C180.606 53.3584 180.462 52.8304 180.174 52.3744C179.898 51.9184 179.448 51.3964 178.824 50.8084L176.25 48.3424C175.782 47.9104 175.44 47.4604 175.224 46.9924C175.02 46.5124 174.918 45.9844 174.918 45.4084C174.918 44.4124 175.212 43.6444 175.8 43.1044C176.4 42.5524 177.204 42.2764 178.212 42.2764C179.292 42.2764 180.12 42.5644 180.696 43.1404C181.272 43.7164 181.608 44.6584 181.704 45.9664L180.534 46.2724C180.462 45.2884 180.252 44.5564 179.904 44.0764C179.568 43.5964 179.004 43.3564 178.212 43.3564C177.588 43.3564 177.09 43.5184 176.718 43.8424C176.346 44.1664 176.16 44.6464 176.16 45.2824C176.16 45.6904 176.238 46.0564 176.394 46.3804C176.55 46.7044 176.814 47.0464 177.186 47.4064L179.76 49.8364C180.42 50.4604 180.936 51.1024 181.308 51.7624C181.692 52.4104 181.884 53.1124 181.884 53.8684C181.884 54.9244 181.578 55.7404 180.966 56.3164C180.354 56.8924 179.544 57.1804 178.536 57.1804ZM183.719 42.4204H185.087V55.9744H189.227V57.0004H183.719V42.4204ZM194.248 42.4204H199.522V43.4824H195.634V48.9544H198.802V49.9624H195.634V55.9744H199.558V57.0004H194.248V42.4204ZM201.168 46.5964H202.482V47.6764C202.83 47.2924 203.214 46.9924 203.634 46.7764C204.066 46.5484 204.516 46.4344 204.984 46.4344C205.5 46.4344 205.896 46.6264 206.172 47.0104C206.448 47.3944 206.586 47.9404 206.586 48.6484V57.0004H205.272V48.9364C205.272 48.4084 205.188 48.0304 205.02 47.8024C204.864 47.5744 204.618 47.4604 204.282 47.4604C203.994 47.4604 203.694 47.5504 203.382 47.7304C203.07 47.8984 202.77 48.1324 202.482 48.4324V57.0004H201.168V46.5964ZM211.125 57.1624C210.357 57.1624 209.769 56.9944 209.361 56.6584C208.953 56.3104 208.677 55.8484 208.533 55.2724C208.401 54.6844 208.335 53.9464 208.335 53.0584V50.6284C208.335 49.6204 208.413 48.8164 208.569 48.2164C208.737 47.6164 209.019 47.1724 209.415 46.8844C209.823 46.5844 210.393 46.4344 211.125 46.4344C212.145 46.4344 212.841 46.7164 213.213 47.2804C213.585 47.8324 213.771 48.6604 213.771 49.7644V50.2684H212.547V49.7644C212.547 49.1524 212.499 48.6784 212.403 48.3424C212.319 48.0064 212.175 47.7724 211.971 47.6404C211.767 47.4964 211.485 47.4244 211.125 47.4244C210.717 47.4244 210.405 47.5204 210.189 47.7124C209.985 47.9044 209.841 48.2104 209.757 48.6304C209.685 49.0384 209.649 49.6324 209.649 50.4124V53.3284C209.649 54.0484 209.691 54.6124 209.775 55.0204C209.859 55.4284 210.009 55.7224 210.225 55.9024C210.441 56.0824 210.747 56.1724 211.143 56.1724C211.551 56.1724 211.851 56.0884 212.043 55.9204C212.247 55.7404 212.379 55.4764 212.439 55.1284C212.511 54.7804 212.547 54.2944 212.547 53.6704V53.0944H213.771V53.5984C213.771 54.3784 213.699 55.0264 213.555 55.5424C213.423 56.0464 213.165 56.4424 212.781 56.7304C212.397 57.0184 211.845 57.1624 211.125 57.1624ZM215.619 46.5964H216.951V48.0184C217.263 47.5024 217.629 47.1184 218.049 46.8664C218.481 46.6144 218.913 46.4884 219.345 46.4884C219.429 46.4884 219.507 46.4944 219.579 46.5064V47.9104C219.363 47.8384 219.147 47.8024 218.931 47.8024C218.103 47.8024 217.443 48.2044 216.951 49.0084V57.0004H215.619V46.5964ZM220.585 58.5664C221.425 58.5664 221.989 58.4764 222.277 58.2964C222.565 58.1164 222.709 57.8464 222.709 57.4864C222.709 57.2584 222.655 56.9344 222.547 56.5144C222.451 56.0824 222.391 55.8304 222.367 55.7584L220.225 46.5964H221.539L223.339 55.4524L225.085 46.5964H226.417L223.897 57.7384C223.741 58.3984 223.429 58.8724 222.961 59.1604C222.493 59.4484 221.815 59.5924 220.927 59.5924H220.585V58.5664ZM227.729 46.5964H229.043V47.4604C229.583 46.7764 230.249 46.4344 231.041 46.4344C231.953 46.4344 232.571 46.8124 232.895 47.5684C233.231 48.3124 233.399 49.3144 233.399 50.5744V52.7704C233.399 54.1984 233.213 55.2904 232.841 56.0464C232.469 56.7904 231.821 57.1624 230.897 57.1624C230.249 57.1624 229.631 56.8324 229.043 56.1724V60.4204H227.729V46.5964ZM230.699 56.1184C231.251 56.1184 231.617 55.8604 231.797 55.3444C231.989 54.8284 232.085 53.9824 232.085 52.8064V50.5744C232.085 49.4584 231.989 48.6604 231.797 48.1804C231.617 47.7004 231.239 47.4604 230.663 47.4604C230.123 47.4604 229.583 47.7304 229.043 48.2704V55.3624C229.523 55.8664 230.075 56.1184 230.699 56.1184ZM237.701 57.1264C236.993 57.1264 236.501 56.9344 236.225 56.5504C235.961 56.1544 235.829 55.5844 235.829 54.8404V47.4604H234.551V46.5964H235.829V43.3744H237.143V46.5964H238.871V47.4604H237.143V54.7144C237.143 55.2424 237.203 55.6084 237.323 55.8124C237.443 56.0044 237.689 56.1004 238.061 56.1004C238.289 56.1004 238.541 56.0704 238.817 56.0104V57.0184C238.445 57.0904 238.073 57.1264 237.701 57.1264ZM240.423 43.3744H241.737V45.1564H240.423V43.3744ZM240.423 46.5964H241.737V57.0004H240.423V46.5964ZM246.527 57.1624C245.495 57.1624 244.775 56.8444 244.367 56.2084C243.959 55.5604 243.755 54.5704 243.755 53.2384V50.3584C243.755 49.0264 243.959 48.0424 244.367 47.4064C244.775 46.7584 245.495 46.4344 246.527 46.4344C247.571 46.4344 248.297 46.7584 248.705 47.4064C249.113 48.0424 249.317 49.0264 249.317 50.3584V53.2384C249.317 54.5704 249.113 55.5604 248.705 56.2084C248.297 56.8444 247.571 57.1624 246.527 57.1624ZM246.527 56.1724C246.959 56.1724 247.277 56.0584 247.481 55.8304C247.697 55.6024 247.835 55.2964 247.895 54.9124C247.955 54.5164 247.985 53.9824 247.985 53.3104V50.2864C247.985 49.6144 247.955 49.0864 247.895 48.7024C247.835 48.3064 247.697 47.9944 247.481 47.7664C247.277 47.5384 246.959 47.4244 246.527 47.4244C246.095 47.4244 245.777 47.5384 245.573 47.7664C245.369 47.9944 245.237 48.3064 245.177 48.7024C245.117 49.0864 245.087 49.6144 245.087 50.2864V53.3104C245.087 53.9824 245.117 54.5164 245.177 54.9124C245.237 55.2964 245.369 55.6024 245.573 55.8304C245.777 56.0584 246.095 56.1724 246.527 56.1724ZM251.143 46.5964H252.457V47.6764C252.805 47.2924 253.189 46.9924 253.609 46.7764C254.041 46.5484 254.491 46.4344 254.959 46.4344C255.475 46.4344 255.871 46.6264 256.147 47.0104C256.423 47.3944 256.561 47.9404 256.561 48.6484V57.0004H255.247V48.9364C255.247 48.4084 255.163 48.0304 254.995 47.8024C254.839 47.5744 254.593 47.4604 254.257 47.4604C253.969 47.4604 253.669 47.5504 253.357 47.7304C253.045 47.8984 252.745 48.1324 252.457 48.4324V57.0004H251.143V46.5964Z" fill="#5E5E5F"></path>
      <path fill-rule="evenodd" clip-rule="evenodd" d="M22.5 19H31.5C32.0523 19 32.5 19.4477 32.5 20V27H21.5V20C21.5 19.4477 21.9477 19 22.5 19ZM18.5 27.126V20C18.5 17.7909 20.2909 16 22.5 16H31.5C33.7091 16 35.5 17.7909 35.5 20V27.126C37.2252 27.5701 38.5 29.1362 38.5 31V33H34.5V34H38.5V36H34.5V37H38.5V39H34.5V40H38.5V41C38.5 43.2091 36.7091 45 34.5 45H19.5C17.2909 45 15.5 43.2091 15.5 41V31C15.5 29.1362 16.7748 27.5701 18.5 27.126ZM27.5 37.95C28.6411 37.7184 29.5 36.7095 29.5 35.5C29.5 34.1193 28.3807 33 27 33C25.6193 33 24.5 34.1193 24.5 35.5C24.5 36.7095 25.3589 37.7184 26.5 37.95V40H27.5V37.95Z" fill="#5E5E5F"></path>
    </g>
    <defs>
      <clipPath id="clip0_404_2881">
        <rect width="257" height="62" fill="white" transform="translate(0.5)"></rect>
      </clipPath>
    </defs>
  </symbol>



  <symbol fill="none" xmlns="http://www.w3.org/2000/svg" viewBox="0 0 180 46" id="USPS">
    <path d="M46.1233 37.6516L52.2776 8.55859H11.9779L5.82349 37.6516H46.1233Z" fill="white"></path>
    <path d="M50.9492 9.62909L12.833 9.6309L12.81 9.75865C12.81 9.75865 35.2183 14.3815 35.6623 14.4609C40.8107 15.374 40.6512 16.372 40.6512 16.372C44.259 16.3538 44.7026 16.5005 45.333 17.0285C47.2296 18.6207 44.1464 23.3118 44.1464 23.3118C43.7055 23.6389 10.3721 36.5726 10.3721 36.5726H45.2459L50.9484 9.62955L50.9492 9.62909ZM58.257 9.62909L56.8089 16.4767C56.2903 18.8423 57.878 19.9138 60.5229 19.9138C63.1778 19.9138 65.1956 18.8422 65.7011 16.4767C67.1736 9.62872 65.6853 16.4771 67.174 9.62909H64.954C64.954 9.62909 63.8327 14.8971 63.6383 15.7988C63.3035 17.3786 62.4742 18.3221 60.8478 18.3221C59.149 18.3084 58.8008 17.3638 59.149 15.7988C59.1092 15.9567 60.4699 9.62909 60.4699 9.62909H58.257ZM69.3002 9.62909L67.1669 19.7309H69.1325L70.685 12.2338H70.7289L73.212 19.7309H76.0024L78.132 9.62909H76.1702L74.5858 17.2096H74.5595L72.1736 9.62909H69.3002ZM80.2601 9.62909L78.132 19.7309H80.3468L82.4783 9.62909H80.2601ZM83.9636 9.62909L83.612 11.2367H86.7398L84.9438 19.731H87.1601L88.9546 11.2367H92.0805L92.4175 9.62909H83.9636ZM93.9062 9.62909L91.7608 19.7309H99.0473L99.3865 18.1233H94.3268L94.9025 15.3622H99.3174L99.6372 13.8699H95.2237L95.7817 11.2366H100.847L101.181 9.62898H93.9062V9.62909ZM102.797 9.62909L100.668 19.7309H105.209C108.015 19.7309 110.706 17.8724 111.311 14.2372C111.742 11.6592 110.719 9.62891 107.676 9.62891H102.797V9.62909ZM119.463 9.62909C116.858 9.62909 115.563 10.5585 115.369 12.0121C115.047 14.4322 119.309 15.8704 118.988 17.3195C118.79 18.1667 117.754 18.1234 116.913 18.1234H114.181L113.842 19.731H117.236C120.013 19.731 121.218 18.73 121.441 17.348C121.846 14.8688 117.517 13.5885 117.854 11.9838C117.965 11.4897 118.509 11.2367 119.716 11.2367H122.086L122.434 9.62909H119.463ZM123.573 9.62909L123.225 11.2367H126.351L124.556 19.731H126.771L128.565 11.2367H131.693L132.03 9.62909H123.573ZM134.377 9.62909L128.616 19.7309H130.833L135.248 11.6323L136.133 18.1232H132.961L132.094 19.7308H138.596L137.028 9.62898H134.377V9.62909ZM139.474 9.62909L139.124 11.2367H142.25L140.456 19.731H142.67L144.464 11.2367H147.589L147.928 9.62909H139.474ZM149.406 9.62909L147.258 19.7309H154.549L154.887 18.1233H149.822L150.398 15.3622H154.815L155.137 13.8699H150.722L151.283 11.2366H156.343L156.68 9.62898H149.406V9.62909ZM161.555 9.62909C158.946 9.62909 157.656 10.5585 157.459 12.0121C157.137 14.4322 161.399 15.8704 161.078 17.3195C160.88 18.1667 159.842 18.1234 159.001 18.1234H156.267L155.932 19.731H159.323C162.1 19.731 163.307 18.73 163.533 17.348C163.936 14.8688 159.606 13.5885 159.941 11.9838C160.054 11.4897 160.601 11.2367 161.807 11.2367H164.172L164.527 9.62909H161.555ZM104.69 11.2367H106.95C108.785 11.2367 109.441 12.6042 109.161 14.2089C108.77 16.478 107.326 18.1234 104.818 18.1234H103.234L104.69 11.2367ZM31.1427 15.8593C30.1322 15.8513 29.421 15.8659 29.3396 15.8611H11.5203L7.14209 36.5798C7.14209 36.5798 20.5525 29.9672 22.1927 29.12C25.553 27.3858 30.2001 25.0941 34.4946 23.6246C35.3129 23.3464 38.8181 22.2601 40.8595 21.8945C41.6506 21.7525 41.9875 21.6174 41.9774 21.4686C41.9466 21.0439 41.1507 21.0159 39.8035 21.0818C35.6926 21.276 27.8153 24.4282 25.5475 25.6298L22.9885 17.6589H39.3438C39.8947 16.1084 34.1745 15.8831 31.1427 15.8593ZM39.814 17.7792C39.6951 17.7792 39.5934 17.8598 39.4553 18.0472C39.3299 18.2096 39.2282 18.319 38.9025 18.4837C38.3974 18.7335 37.0767 18.8732 36.4585 18.9255C35.8651 18.9755 35.7039 19.0357 35.6938 19.2662C35.6881 19.4718 35.7822 19.5892 36.6333 19.5892C38.5922 19.5892 42.1178 18.8468 43.1801 19.1863C43.7408 19.367 43.2904 20.3705 42.8304 21.6902C42.6517 22.2001 43.0011 22.1641 43.2049 21.9404C43.4083 21.7155 44.322 20.0338 44.4215 19.1775C44.563 17.9612 43.5242 17.7793 42.0922 17.7793H39.814V17.7792ZM68.7914 26.2877C65.6797 26.2877 63.087 27.9214 62.3275 31.5135C61.7274 34.3867 63.4664 36.7517 66.5642 36.7517C69.7055 36.7517 72.2284 35.1907 73.0138 31.5135C73.657 28.5143 71.8757 26.2877 68.7914 26.2877ZM157.536 26.2877C154.451 26.2877 151.481 27.8918 150.723 31.5135C149.953 35.1328 152.237 36.7517 155.323 36.7517C156.177 36.7517 156.995 36.6548 157.807 36.5299L158.352 34.7927C157.554 34.9914 156.709 35.1476 155.657 35.1476C153.652 35.1476 152.52 33.7961 152.996 31.5135C153.473 29.2308 155.182 27.8918 157.185 27.8918C158.211 27.8918 158.91 28.0326 159.541 28.2166L159.738 26.5131C159.025 26.387 158.282 26.2878 157.536 26.2878V26.2877ZM78.4319 26.4687C75.8223 26.4687 74.5303 27.3993 74.3347 28.8517C74.0128 31.2752 78.2739 32.7113 77.9553 34.1627C77.7586 35.0076 76.7192 34.9647 75.8782 34.9647H73.1444L72.8055 36.5706H76.2017C78.9775 36.5706 80.1828 35.5703 80.4065 34.1894C80.8133 31.7113 76.4824 30.4281 76.8179 28.8234C76.9297 28.3294 77.4772 28.0764 78.6863 28.0764H81.0512L81.4043 26.4688H78.4322L78.4319 26.4687ZM82.5398 26.4687L82.1901 28.0763H85.316L83.5219 36.5706H85.7363L87.5342 28.0763H90.6583L90.9923 26.4687H82.5398ZM114.901 26.4687C112.291 26.4687 111 27.3993 110.805 28.8517C110.481 31.2752 114.743 32.7113 114.424 34.1627C114.227 35.0076 113.188 34.9647 112.347 34.9647H109.613L109.276 36.5706H112.67C115.445 36.5706 116.652 35.5703 116.875 34.1894C117.282 31.7113 112.952 30.4281 113.283 28.8234C113.396 28.3294 113.946 28.0764 115.152 28.0764H117.52L117.869 26.4688H114.901V26.4687ZM119.789 26.4687L117.643 36.5705H124.935L125.271 34.9646H120.209L120.785 32.2018H125.202L125.523 30.7077H121.109L121.667 28.0762H126.73L127.064 26.4686H119.789V26.4687ZM128.674 26.4687L126.542 36.5705H128.757L130.551 28.062H132.542C133.775 28.062 133.886 28.751 133.76 29.3858C133.524 30.5827 132.485 31.0609 131.35 31.0609C131.139 31.0609 130.787 31.0757 130.507 31.0325L132.331 36.5706H134.756L133.102 32.2161C134.574 32.0059 135.838 30.9502 135.975 29.0469C136.104 27.3558 135.319 26.4685 133.357 26.4685H128.674V26.4687ZM161.528 26.4687L159.387 36.5705H166.677L167.013 34.9646H161.954L162.527 32.2018H166.944L167.266 30.7077H162.85L163.412 28.0762H168.472L168.807 26.4686H161.528V26.4687ZM54.704 26.4705L52.5726 36.5705H54.7889L56.583 28.0762H58.3899C59.2057 28.0762 59.7633 28.4834 59.5269 29.5827C59.4027 30.188 58.8533 31.2312 57.3391 31.2312C57.0033 31.2312 56.6396 31.1886 56.3604 31.1603L56.4719 32.6277C56.7928 32.6561 57.1729 32.7093 57.5245 32.7093C59.5149 32.7093 61.2666 31.5558 61.6745 29.6377C61.9402 28.3714 61.6873 26.4703 59.5149 26.4703H54.704V26.4705ZM93.359 26.4705L87.6018 36.5705H89.8128L94.2334 28.4701L95.113 34.9646H91.9462L91.0774 36.5705H97.58L96.0133 26.4705H93.359ZM100.867 26.4705L98.7365 36.5705H105.538L105.888 34.9646H101.303L103.097 26.4703H100.867V26.4705ZM137.152 26.4705L138.665 36.5705H141.284L147.008 26.4705H144.82L140.405 34.5727L139.367 26.4705H137.152ZM148.343 26.4705L146.213 36.5705H148.428L150.559 26.4705H148.343ZM68.4413 27.8923C70.4883 27.8923 71.1765 29.4687 70.7427 31.514C70.262 33.7966 68.9178 35.148 66.9139 35.148C64.8376 35.148 64.1501 33.4718 64.5843 31.514C65.1029 29.2313 66.4374 27.8923 68.4413 27.8923Z" fill="#15569C"></path>
    <path d="M55.4934 22.7285L55.3362 23.478H169.448L169.602 22.7285H55.5013H55.4934Z" fill="#ED192D"></path>
  </symbol>


</svg>