<svg width="180" height="46" viewBox="0 0 180 46" fill="none" xmlns="http://www.w3.org/2000/svg">
<path d="M46.1233 37.6516L52.2776 8.55859H11.9779L5.82349 37.6516H46.1233Z" fill="white"/>
<path d="M50.9492 9.62909L12.833 9.6309L12.81 9.75865C12.81 9.75865 35.2183 14.3815 35.6623 14.4609C40.8107 15.374 40.6512 16.372 40.6512 16.372C44.259 16.3538 44.7026 16.5005 45.333 17.0285C47.2296 18.6207 44.1464 23.3118 44.1464 23.3118C43.7055 23.6389 10.3721 36.5726 10.3721 36.5726H45.2459L50.9484 9.62955L50.9492 9.62909ZM58.257 9.62909L56.8089 16.4767C56.2903 18.8423 57.878 19.9138 60.5229 19.9138C63.1778 19.9138 65.1956 18.8422 65.7011 16.4767C67.1736 9.62872 65.6853 16.4771 67.174 9.62909H64.954C64.954 9.62909 63.8327 14.8971 63.6383 15.7988C63.3035 17.3786 62.4742 18.3221 60.8478 18.3221C59.149 18.3084 58.8008 17.3638 59.149 15.7988C59.1092 15.9567 60.4699 9.62909 60.4699 9.62909H58.257ZM69.3002 9.62909L67.1669 19.7309H69.1325L70.685 12.2338H70.7289L73.212 19.7309H76.0024L78.132 9.62909H76.1702L74.5858 17.2096H74.5595L72.1736 9.62909H69.3002ZM80.2601 9.62909L78.132 19.7309H80.3468L82.4783 9.62909H80.2601ZM83.9636 9.62909L83.612 11.2367H86.7398L84.9438 19.731H87.1601L88.9546 11.2367H92.0805L92.4175 9.62909H83.9636ZM93.9062 9.62909L91.7608 19.7309H99.0473L99.3865 18.1233H94.3268L94.9025 15.3622H99.3174L99.6372 13.8699H95.2237L95.7817 11.2366H100.847L101.181 9.62898H93.9062V9.62909ZM102.797 9.62909L100.668 19.7309H105.209C108.015 19.7309 110.706 17.8724 111.311 14.2372C111.742 11.6592 110.719 9.62891 107.676 9.62891H102.797V9.62909ZM119.463 9.62909C116.858 9.62909 115.563 10.5585 115.369 12.0121C115.047 14.4322 119.309 15.8704 118.988 17.3195C118.79 18.1667 117.754 18.1234 116.913 18.1234H114.181L113.842 19.731H117.236C120.013 19.731 121.218 18.73 121.441 17.348C121.846 14.8688 117.517 13.5885 117.854 11.9838C117.965 11.4897 118.509 11.2367 119.716 11.2367H122.086L122.434 9.62909H119.463ZM123.573 9.62909L123.225 11.2367H126.351L124.556 19.731H126.771L128.565 11.2367H131.693L132.03 9.62909H123.573ZM134.377 9.62909L128.616 19.7309H130.833L135.248 11.6323L136.133 18.1232H132.961L132.094 19.7308H138.596L137.028 9.62898H134.377V9.62909ZM139.474 9.62909L139.124 11.2367H142.25L140.456 19.731H142.67L144.464 11.2367H147.589L147.928 9.62909H139.474ZM149.406 9.62909L147.258 19.7309H154.549L154.887 18.1233H149.822L150.398 15.3622H154.815L155.137 13.8699H150.722L151.283 11.2366H156.343L156.68 9.62898H149.406V9.62909ZM161.555 9.62909C158.946 9.62909 157.656 10.5585 157.459 12.0121C157.137 14.4322 161.399 15.8704 161.078 17.3195C160.88 18.1667 159.842 18.1234 159.001 18.1234H156.267L155.932 19.731H159.323C162.1 19.731 163.307 18.73 163.533 17.348C163.936 14.8688 159.606 13.5885 159.941 11.9838C160.054 11.4897 160.601 11.2367 161.807 11.2367H164.172L164.527 9.62909H161.555ZM104.69 11.2367H106.95C108.785 11.2367 109.441 12.6042 109.161 14.2089C108.77 16.478 107.326 18.1234 104.818 18.1234H103.234L104.69 11.2367ZM31.1427 15.8593C30.1322 15.8513 29.421 15.8659 29.3396 15.8611H11.5203L7.14209 36.5798C7.14209 36.5798 20.5525 29.9672 22.1927 29.12C25.553 27.3858 30.2001 25.0941 34.4946 23.6246C35.3129 23.3464 38.8181 22.2601 40.8595 21.8945C41.6506 21.7525 41.9875 21.6174 41.9774 21.4686C41.9466 21.0439 41.1507 21.0159 39.8035 21.0818C35.6926 21.276 27.8153 24.4282 25.5475 25.6298L22.9885 17.6589H39.3438C39.8947 16.1084 34.1745 15.8831 31.1427 15.8593ZM39.814 17.7792C39.6951 17.7792 39.5934 17.8598 39.4553 18.0472C39.3299 18.2096 39.2282 18.319 38.9025 18.4837C38.3974 18.7335 37.0767 18.8732 36.4585 18.9255C35.8651 18.9755 35.7039 19.0357 35.6938 19.2662C35.6881 19.4718 35.7822 19.5892 36.6333 19.5892C38.5922 19.5892 42.1178 18.8468 43.1801 19.1863C43.7408 19.367 43.2904 20.3705 42.8304 21.6902C42.6517 22.2001 43.0011 22.1641 43.2049 21.9404C43.4083 21.7155 44.322 20.0338 44.4215 19.1775C44.563 17.9612 43.5242 17.7793 42.0922 17.7793H39.814V17.7792ZM68.7914 26.2877C65.6797 26.2877 63.087 27.9214 62.3275 31.5135C61.7274 34.3867 63.4664 36.7517 66.5642 36.7517C69.7055 36.7517 72.2284 35.1907 73.0138 31.5135C73.657 28.5143 71.8757 26.2877 68.7914 26.2877ZM157.536 26.2877C154.451 26.2877 151.481 27.8918 150.723 31.5135C149.953 35.1328 152.237 36.7517 155.323 36.7517C156.177 36.7517 156.995 36.6548 157.807 36.5299L158.352 34.7927C157.554 34.9914 156.709 35.1476 155.657 35.1476C153.652 35.1476 152.52 33.7961 152.996 31.5135C153.473 29.2308 155.182 27.8918 157.185 27.8918C158.211 27.8918 158.91 28.0326 159.541 28.2166L159.738 26.5131C159.025 26.387 158.282 26.2878 157.536 26.2878V26.2877ZM78.4319 26.4687C75.8223 26.4687 74.5303 27.3993 74.3347 28.8517C74.0128 31.2752 78.2739 32.7113 77.9553 34.1627C77.7586 35.0076 76.7192 34.9647 75.8782 34.9647H73.1444L72.8055 36.5706H76.2017C78.9775 36.5706 80.1828 35.5703 80.4065 34.1894C80.8133 31.7113 76.4824 30.4281 76.8179 28.8234C76.9297 28.3294 77.4772 28.0764 78.6863 28.0764H81.0512L81.4043 26.4688H78.4322L78.4319 26.4687ZM82.5398 26.4687L82.1901 28.0763H85.316L83.5219 36.5706H85.7363L87.5342 28.0763H90.6583L90.9923 26.4687H82.5398ZM114.901 26.4687C112.291 26.4687 111 27.3993 110.805 28.8517C110.481 31.2752 114.743 32.7113 114.424 34.1627C114.227 35.0076 113.188 34.9647 112.347 34.9647H109.613L109.276 36.5706H112.67C115.445 36.5706 116.652 35.5703 116.875 34.1894C117.282 31.7113 112.952 30.4281 113.283 28.8234C113.396 28.3294 113.946 28.0764 115.152 28.0764H117.52L117.869 26.4688H114.901V26.4687ZM119.789 26.4687L117.643 36.5705H124.935L125.271 34.9646H120.209L120.785 32.2018H125.202L125.523 30.7077H121.109L121.667 28.0762H126.73L127.064 26.4686H119.789V26.4687ZM128.674 26.4687L126.542 36.5705H128.757L130.551 28.062H132.542C133.775 28.062 133.886 28.751 133.76 29.3858C133.524 30.5827 132.485 31.0609 131.35 31.0609C131.139 31.0609 130.787 31.0757 130.507 31.0325L132.331 36.5706H134.756L133.102 32.2161C134.574 32.0059 135.838 30.9502 135.975 29.0469C136.104 27.3558 135.319 26.4685 133.357 26.4685H128.674V26.4687ZM161.528 26.4687L159.387 36.5705H166.677L167.013 34.9646H161.954L162.527 32.2018H166.944L167.266 30.7077H162.85L163.412 28.0762H168.472L168.807 26.4686H161.528V26.4687ZM54.704 26.4705L52.5726 36.5705H54.7889L56.583 28.0762H58.3899C59.2057 28.0762 59.7633 28.4834 59.5269 29.5827C59.4027 30.188 58.8533 31.2312 57.3391 31.2312C57.0033 31.2312 56.6396 31.1886 56.3604 31.1603L56.4719 32.6277C56.7928 32.6561 57.1729 32.7093 57.5245 32.7093C59.5149 32.7093 61.2666 31.5558 61.6745 29.6377C61.9402 28.3714 61.6873 26.4703 59.5149 26.4703H54.704V26.4705ZM93.359 26.4705L87.6018 36.5705H89.8128L94.2334 28.4701L95.113 34.9646H91.9462L91.0774 36.5705H97.58L96.0133 26.4705H93.359ZM100.867 26.4705L98.7365 36.5705H105.538L105.888 34.9646H101.303L103.097 26.4703H100.867V26.4705ZM137.152 26.4705L138.665 36.5705H141.284L147.008 26.4705H144.82L140.405 34.5727L139.367 26.4705H137.152ZM148.343 26.4705L146.213 36.5705H148.428L150.559 26.4705H148.343ZM68.4413 27.8923C70.4883 27.8923 71.1765 29.4687 70.7427 31.514C70.262 33.7966 68.9178 35.148 66.9139 35.148C64.8376 35.148 64.1501 33.4718 64.5843 31.514C65.1029 29.2313 66.4374 27.8923 68.4413 27.8923Z" fill="#15569C"/>
<path d="M55.4934 22.7285L55.3362 23.478H169.448L169.602 22.7285H55.5013H55.4934Z" fill="#ED192D"/>
</svg>
